<svg width="345" height="239" viewBox="0 0 345 239" fill="none" xmlns="http://www.w3.org/2000/svg">
<path d="M61.1684 238.03C53.4384 237.22 38.1184 233.79 36.9284 232.6C35.6084 231.29 37.7284 231.18 47.1884 232.07C64.5884 233.72 90.9984 230.84 117.178 224.45C169.838 211.58 220.868 187.28 257.648 157.56C270.618 147.08 270.528 148.5 257.388 161.6C250.398 168.58 244.678 174.75 244.678 175.31C244.678 175.87 245.578 175.52 246.678 174.52C245.578 175.52 244.678 175.97 244.678 175.52C244.678 175.07 243.788 175.51 242.698 176.5C241.618 177.48 240.958 178.66 241.238 179.12C241.318 179.25 241.438 179.34 241.578 179.39C241.228 179.46 240.868 179.51 240.508 179.56C237.848 179.9 234.138 182.02 215.408 193.92C210.038 197.33 198.008 203.99 188.688 208.72C179.258 213.5 172.018 217.76 172.358 218.31C173.188 219.65 201.298 218.43 214.208 216.49C226.808 214.6 234.108 212.61 244.438 208.25L252.698 204.77L255.418 207.49C256.918 208.98 259.438 210.88 261.028 211.7C264.718 213.61 263.808 214.61 253.948 219.47C244.458 224.14 234.048 227.48 220.348 230.25C205.228 233.29 168.758 233.52 149.988 230.67L137.798 228.83L124.568 231.97C101.628 237.42 77.5084 239.73 61.1684 238.03ZM261.108 204.68C251.478 196.38 254.198 182.37 266.098 179.04C278.508 175.57 289.308 187.57 284.308 199.3C281.838 205.08 278.358 207.38 271.398 207.81C265.488 208.17 264.978 208.02 261.108 204.68ZM285.878 180.01L282.578 176.04L285.308 168.78C287.748 162.29 288.038 160.2 288.038 149.02C288.038 140.79 287.518 134.74 286.518 131.32L284.998 126.12L288.808 122.39L292.628 118.66L294.058 122.09C297.668 130.73 299.058 138.63 299.068 150.52C299.068 157.12 298.518 164.54 297.838 167.02C295.838 174.33 291.538 184.02 290.318 184C289.688 183.99 287.698 182.2 285.878 180.01ZM279.078 112.77C278.168 110.98 275.428 106.7 272.988 103.25L268.548 96.9801L269.728 91.2601L270.918 85.5401L274.918 90.0301C279.068 94.6801 286.298 104.88 287.288 107.45C287.868 108.94 283.148 116.02 281.588 116.02C281.118 116.02 279.988 114.56 279.078 112.77ZM248.678 174.68V174.7C248.678 175.96 247.438 177.21 245.488 178.15C247.158 177.12 248.678 175.69 248.678 174.68Z" fill="#125398"/>
<path d="M247.678 153.7C247.678 153.52 258.398 142.61 271.488 129.45C298.918 101.89 311.358 86.3401 320.228 68.5201C326.208 56.4901 329.228 45.1601 328.228 38.5201C327.148 31.4201 323.198 24.8301 317.868 21.2201C309.748 15.7301 305.028 14.6801 288.008 14.5901L272.838 14.5201L272.498 10.2601C272.248 7.12007 272.558 5.89006 273.668 5.56006C279.368 3.91006 293.618 2.86007 304.928 3.25007C319.988 3.77007 328.218 6.11008 335.628 11.9801C348.278 22.0001 347.758 41.8601 334.218 64.9401C319.278 90.4301 289.348 122.34 255.538 148.82C249.558 153.5 247.678 154.67 247.678 153.7ZM293.308 111.23C293.748 111.94 294.448 111.65 295.288 110.42C296.008 109.38 296.948 108.21 297.388 107.83C305.558 100.69 307.578 98.6701 307.198 98.0501C306.948 97.6501 310.548 93.3101 315.208 88.4201C319.858 83.5201 323.668 78.8801 323.668 78.1001C323.678 77.3201 324.328 75.9601 325.118 75.0901C331.278 68.2801 339.958 51.7801 341.718 43.5201C344.388 30.9901 341.478 17.4301 335.408 14.1601C333.738 13.2601 331.538 11.7301 330.518 10.7701C329.508 9.81007 328.058 9.02007 327.308 9.02007C326.548 9.02007 323.958 8.17007 321.558 7.13007C315.678 4.60007 301.558 3.61007 291.878 5.05007C287.638 5.68007 282.148 6.50007 279.678 6.86007C276.098 7.40007 275.118 7.97007 274.868 9.68007C274.498 12.3001 277.058 12.7601 292.948 12.9201C298.868 12.9801 304.498 13.4301 305.448 13.9301C306.398 14.4201 309.208 15.4001 311.678 16.1001C314.148 16.8001 316.888 17.9701 317.758 18.7001C318.628 19.4201 319.828 20.0201 320.438 20.0201C321.858 20.0201 326.998 27.6401 328.508 31.9701C331.608 40.8601 328.548 58.9401 322.248 68.9001C320.838 71.1501 319.678 73.4901 319.678 74.1101C319.678 74.7201 318.558 76.5701 317.178 78.2001C315.798 79.8401 314.678 81.9701 314.678 82.9401C314.678 83.9101 313.788 85.5101 312.698 86.5001C311.618 87.4801 310.978 88.6901 311.278 89.1901C311.588 89.6901 308.608 93.3401 304.668 97.3101C300.718 101.27 297.018 105.42 296.438 106.52C295.858 107.62 294.768 108.89 294.008 109.33C293.258 109.78 292.938 110.63 293.308 111.23ZM38.9184 221.97C-1.9216 214.68 -11.4316 184.14 14.2484 142.71C22.4284 129.51 39.8484 107.85 41.1984 109.21C41.5084 109.52 39.2284 113.54 36.1384 118.14C29.0384 128.7 21.2584 144.56 19.0084 153.02C18.0184 156.78 17.2984 163.1 17.3084 168.02C17.3284 179.63 20.0684 186.57 27.5884 194.09C40.2084 206.71 60.4184 211.92 91.6784 210.63C106.048 210.03 120.898 208.13 122.328 206.71C122.458 206.57 122.368 206.34 122.048 206.01C122.468 206.41 122.678 206.72 122.678 206.95C122.678 208.93 118.468 210.12 108.178 211.02C102.408 211.53 96.8984 212.36 95.9384 212.88C93.6284 214.11 68.9484 213.56 64.5784 212.19C62.7084 211.6 56.9084 210.1 51.6784 208.85C46.4484 207.61 41.9484 206.27 41.6684 205.88C41.3884 205.5 39.9584 204.88 38.4884 204.51C37.0284 204.14 35.0484 202.98 34.0984 201.93C33.1484 200.88 31.5284 200.02 30.4884 200.02C29.4584 200.02 28.3384 199.23 28.0084 198.27C27.6784 197.31 25.7184 194.88 23.6584 192.88C18.6284 187.99 15.7784 179.27 15.5384 168.01C15.4384 163.33 15.8184 158.6 16.3984 157.51C16.9784 156.42 17.7784 153.5 18.1784 151.02C18.5884 148.54 19.7884 144.8 20.8584 142.69C21.9284 140.59 22.6584 137.66 22.4884 136.19C22.1984 133.69 21.9584 133.86 18.5484 139.02C2.87841 162.74 -1.95158 182.77 4.52842 197.18C7.13842 202.97 14.6284 212.02 16.8184 212.02C17.3084 212.02 19.4984 213.14 21.6784 214.52C23.8584 215.9 26.3484 217.02 27.2084 217.02C28.0684 217.02 30.2184 217.77 31.9784 218.69C33.8184 219.65 38.9884 220.65 44.1784 221.04C54.7884 221.86 76.4484 221.12 78.8784 219.87C79.8184 219.39 85.4484 218.51 91.3784 217.91C97.3184 217.31 104.108 216.19 106.458 215.42C108.818 214.65 112.198 214.02 113.958 214.01C115.728 214.01 118.498 213.32 120.108 212.48C121.718 211.64 125.768 210.67 129.108 210.32C137.188 209.48 156.258 202.67 160.868 198.97C162.898 197.35 165.168 196.02 165.898 196.02C167.988 196.02 185.378 187.92 193.368 183.23C197.318 180.91 201.258 178.74 202.118 178.41C204.498 177.49 203.978 175.13 201.248 174.45C197.908 173.61 196.598 171.77 192.778 162.52C189.698 155.08 186.618 148.19 185.848 147.02C185.468 146.44 167.598 145.16 150.178 144.47C136.128 143.91 134.448 144.48 131.008 151.02C130.058 152.83 128.858 155.31 127.668 157.88C128.288 156.31 128.678 155.13 128.678 154.78C128.678 151.86 132.048 145.16 133.728 144.72C136.588 143.97 180.188 143.84 184.058 144.56C187.378 145.19 187.648 145.6 192.908 158.36L198.328 171.52L205.068 171.82C209.778 172.02 211.698 172.48 211.418 173.32C210.838 175.08 196.888 183.51 183.598 190.13C156.258 203.75 120.598 215.39 90.1784 220.62C79.5484 222.45 46.4684 223.32 38.9184 221.97ZM119.238 115.45C126.598 99.0101 135.848 78.2701 142.388 63.5201C150.938 44.2701 158.248 28.1701 158.638 27.7401C160.238 25.9601 162.428 28.6101 166.958 37.8101C169.578 43.1501 171.718 48.0801 171.708 48.7601C171.688 49.4401 173.438 53.3701 175.598 57.4901C177.748 61.6001 180.488 67.5601 181.668 70.7301C182.858 73.9001 184.188 76.9501 184.628 77.5101C185.078 78.0601 186.448 81.3301 187.688 84.7701C188.928 88.2101 190.278 91.0201 190.688 91.0201C191.098 91.0201 191.978 92.4801 192.648 94.2701C195.378 101.57 197.298 105.8 200.328 111.22C202.078 114.35 203.808 117.95 204.158 119.22C204.888 121.78 206.848 126.19 210.348 133.16C211.628 135.7 212.678 138.64 212.678 139.67C212.678 140.71 213.798 143.21 215.178 145.23C216.558 147.26 217.678 149.19 217.678 149.53C217.678 151.6 223.258 161.02 224.478 161.02C226.278 161.02 233.258 155.14 244.788 143.91C254.138 134.8 253.248 136.71 255.188 121.52C255.698 117.51 257.938 103.4 259.728 92.9601C260.248 89.9001 260.678 85.5901 260.678 83.3701C260.678 81.1501 261.348 77.1301 262.168 74.4301C262.988 71.7301 263.658 68.0301 263.668 66.2101C263.678 64.3901 264.168 60.9501 264.768 58.5701C265.528 55.5701 265.548 53.6401 264.838 52.3101C263.738 50.2601 255.508 46.8301 241.678 42.6501C237.008 41.2301 231.158 39.4301 228.678 38.6401C226.198 37.8501 221.258 36.3001 217.678 35.1901C214.098 34.0701 208.578 32.0101 205.398 30.5901C202.218 29.1801 198.818 28.0201 197.828 28.0201C196.118 28.0201 188.408 25.7701 184.178 24.0401C180.208 22.4101 176.078 21.1401 170.678 19.8901C167.658 19.1901 164.148 17.9701 162.898 17.1801C160.838 15.8901 156.008 15.9501 150.578 17.1501C156.538 15.2701 157.858 15.0201 159.668 15.0201C160.958 15.0201 180.058 20.9201 202.098 28.1301C224.138 35.3301 247.688 43.0101 254.408 45.1901C261.138 47.3701 266.868 49.5301 267.148 49.9701C267.688 50.8501 265.148 69.0301 258.688 110.49C254.708 136.08 254.598 136.51 251.408 139.86C240.948 150.87 223.698 165.45 222.538 164.26C222.148 163.85 219.368 158.12 216.358 151.52C207.858 132.85 175.848 61.9801 163.418 34.3101C161.638 30.3401 159.788 27.2101 159.298 27.3501C158.818 27.4901 151.118 44.0101 142.188 64.0601C135.528 79.0301 126.448 99.3601 119.238 115.45ZM43.7184 190.45C41.3984 187.94 38.0984 182.87 36.3784 179.2C33.7584 173.6 33.1884 171.03 32.8484 163.27C32.6184 158.18 32.8684 153.45 33.3784 152.77C33.8984 152.08 34.4084 150.06 34.5184 148.27C34.8884 142 40.0884 130.78 48.5284 118.02L54.1484 109.52L55.2884 115.87L56.4384 122.22L52.5384 128.87C45.3284 141.18 40.6784 156.06 40.6784 166.81C40.6784 172.75 43.2284 182.25 46.4984 188.45C49.1184 193.43 49.7684 194.64 49.4884 194.93C49.3884 195.03 49.1684 195.02 48.8884 195.02C48.3584 195.02 46.0384 192.96 43.7184 190.45ZM38.5084 178.98C39.4284 179.52 40.2684 179.97 40.3884 179.99C40.4984 180.01 40.5284 176.08 40.4484 171.27C40.1884 155.21 42.7584 144.73 50.6084 129.76C55.1684 121.07 55.5784 118.57 52.7084 117.04C52.1384 116.73 51.7384 116.48 51.3484 116.49C50.2084 116.49 49.0884 118.52 44.1484 127.02C42.0784 130.6 38.9584 137.02 37.2184 141.29C34.5484 147.85 34.0084 150.56 33.7984 158.58C33.5184 168.89 35.4384 177.19 38.5084 178.98ZM218.778 24.6201C216.458 23.3301 216.658 23.1801 224.278 20.2801C228.618 18.6201 234.538 16.5001 237.428 15.5601C241.888 14.1201 242.678 13.4901 242.678 11.3901C242.678 8.12006 245.128 3.52007 247.898 1.58007C249.018 0.790067 251.028 0.310069 253.218 0.160069C250.558 1.08007 246.318 6.01007 243.768 11.3201C240.718 17.6701 240.938 20.0201 244.578 20.0201C245.488 20.0201 247.138 20.6601 248.248 21.4301C249.358 22.2101 251.598 23.0401 253.228 23.2801C254.848 23.5201 256.408 23.7901 256.698 23.8701C256.978 23.9501 258.878 22.8901 260.908 21.5101C265.568 18.3401 267.488 12.9501 265.758 7.90007C264.888 5.35007 263.448 3.97007 259.888 2.25007C257.788 1.24007 255.648 0.380071 254.568 0.100071C257.198 0.0700714 259.888 0.490076 261.488 1.37008C265.138 3.40008 267.668 8.06006 267.668 12.7801C267.678 16.2501 267.038 17.7501 264.258 20.7801C261.098 24.2301 260.408 24.5201 255.338 24.5201C251.008 24.5201 249.328 24.0401 247.448 22.2701C244.368 19.3801 243.568 19.4301 232.838 23.0201C222.748 26.4001 222.118 26.4701 218.778 24.6201ZM140.678 122.42C140.678 122.09 141.328 120.4 142.128 118.67C142.808 117.2 144.078 114.17 145.158 111.44C143.608 115.66 142.648 119.51 143.078 120.63C143.658 122.14 145.188 122.24 158.448 121.6C166.548 121.21 173.498 120.58 173.888 120.19C174.618 119.48 172.498 111.97 170.668 108.78C170.128 107.83 169.678 106.6 169.678 106.06C169.678 105.51 168.038 101.57 166.028 97.2901C164.028 93.0201 162.078 88.4001 161.708 87.0201C160.628 83.0301 157.958 83.3401 155.948 87.7001C154.978 89.8001 153.618 92.1101 152.928 92.8401C152.898 92.8801 152.858 92.9201 152.828 92.9501C153.538 90.9801 154.518 88.4701 155.598 85.8901L159.528 76.5201L160.978 80.0201C164.868 89.3401 176.988 118.79 177.758 120.77L178.628 123.02H159.658C149.218 123.02 140.678 122.75 140.678 122.42ZM223.298 23.4601C223.808 24.8001 224.278 24.8001 227.528 23.4501C231.508 21.7901 234.388 19.4001 233.488 18.5001C233.178 18.1801 232.208 18.6401 231.328 19.5101C230.458 20.3801 229.498 21.0201 229.188 20.9401C228.878 20.8501 227.298 21.0501 225.678 21.3701C223.578 21.7901 222.888 22.4001 223.298 23.4601ZM241.238 179.12C240.958 178.66 241.618 177.48 242.698 176.5C243.788 175.51 244.678 175.07 244.678 175.52C244.678 175.97 245.578 175.52 246.678 174.52C248.618 172.77 248.678 172.77 248.678 174.68C248.678 176.77 242.188 180.65 241.238 179.12ZM149.998 101C149.768 101.45 149.528 101.91 149.278 102.34C148.798 103.18 148.308 104.11 147.838 105.09C148.548 103.58 149.248 102.23 149.758 101.4C149.838 101.27 149.918 101.13 149.998 101ZM135.338 21.9101C134.568 22.1401 133.838 22.3501 133.178 22.5401C130.398 23.3201 127.848 24.2701 126.938 24.8601C127.848 24.2701 130.398 23.3101 133.178 22.5301C133.838 22.3401 134.568 22.1301 135.338 21.9101ZM115.838 201.91C112.678 200.09 108.378 197.79 102.988 195.02C108.438 197.82 112.698 200.1 115.838 201.91Z" fill="#B31C2C"/>
<path d="M44.1784 221.04C38.9884 220.65 33.8184 219.65 31.9784 218.69C30.2184 217.77 28.0684 217.02 27.2084 217.02C26.3484 217.02 23.8584 215.9 21.6784 214.52C19.4984 213.14 17.3084 212.02 16.8184 212.02C14.6284 212.02 7.13842 202.97 4.52842 197.18C-1.95158 182.77 2.87841 162.74 18.5484 139.02C21.9584 133.86 22.1984 133.69 22.4884 136.19C22.6584 137.66 21.9284 140.59 20.8584 142.69C19.7884 144.8 18.5884 148.54 18.1784 151.02C17.7784 153.5 16.9784 156.42 16.3984 157.51C15.8184 158.6 15.4384 163.33 15.5384 168.01C15.7784 179.27 18.6284 187.99 23.6584 192.88C25.7184 194.88 27.6784 197.31 28.0084 198.27C28.3384 199.23 29.4584 200.02 30.4884 200.02C31.5284 200.02 33.1484 200.88 34.0984 201.93C35.0484 202.98 37.0284 204.14 38.4884 204.51C39.9584 204.88 41.3884 205.5 41.6684 205.88C41.9484 206.27 46.4484 207.61 51.6784 208.85C56.9084 210.1 62.7084 211.6 64.5784 212.19C68.9484 213.56 93.6284 214.11 95.9384 212.88C96.8984 212.36 102.408 211.53 108.178 211.02C118.468 210.12 122.678 208.93 122.678 206.95C122.678 205.7 116.518 201.97 102.988 195.02C99.2484 193.1 95.9484 191.25 95.6784 190.93C95.4084 190.6 92.6984 189.11 89.6784 187.61C78.0184 181.85 71.7684 177.59 71.1984 175.02C70.5784 172.21 68.0484 155.13 66.6684 144.52C66.1684 140.67 65.2884 134.37 64.7184 130.52C64.1484 126.67 63.1984 119.92 62.6184 115.52C62.0384 111.12 61.1384 104.59 60.6284 101.02C60.1184 97.4501 59.2784 90.9201 58.7684 86.5201C58.2584 82.1201 57.5984 77.6201 57.2984 76.5201C56.5984 73.9401 55.8884 67.6601 55.0884 56.9901C54.3284 46.9201 54.2784 46.9901 64.1984 44.1601C68.0384 43.0601 76.5784 40.3801 83.1784 38.1801C101.698 32.0401 108.438 30.0201 110.438 30.0201C111.448 30.0201 112.738 29.5601 113.298 29.0001C113.868 28.4301 116.958 27.5401 120.178 27.0201C123.398 26.5001 126.288 25.6501 126.608 25.1401C126.918 24.6301 129.878 23.4601 133.178 22.5401C136.478 21.6101 141.548 19.9901 144.448 18.9401C152.088 16.1801 160.078 15.4101 162.898 17.1801C164.148 17.9701 167.658 19.1901 170.678 19.8901C176.078 21.1401 180.208 22.4101 184.178 24.0401C188.408 25.7701 196.118 28.0201 197.828 28.0201C198.818 28.0201 202.218 29.1801 205.398 30.5901C208.578 32.0101 214.098 34.0701 217.678 35.1901C221.258 36.3001 226.198 37.8501 228.678 38.6401C231.158 39.4301 237.008 41.2301 241.678 42.6501C255.508 46.8301 263.738 50.2601 264.838 52.3101C265.548 53.6401 265.528 55.5701 264.768 58.5701C264.168 60.9501 263.678 64.3901 263.668 66.2101C263.658 68.0301 262.988 71.7301 262.168 74.4301C261.348 77.1301 260.678 81.1501 260.678 83.3701C260.678 85.5901 260.248 89.9001 259.728 92.9601C257.938 103.4 255.698 117.51 255.188 121.52C253.248 136.71 254.138 134.8 244.788 143.91C233.258 155.14 226.278 161.02 224.478 161.02C223.258 161.02 217.678 151.6 217.678 149.53C217.678 149.19 216.558 147.26 215.178 145.23C213.798 143.21 212.678 140.71 212.678 139.67C212.678 138.64 211.628 135.7 210.348 133.16C206.848 126.19 204.888 121.78 204.158 119.22C203.808 117.95 202.078 114.35 200.328 111.22C197.298 105.8 195.378 101.57 192.648 94.2701C191.978 92.4801 191.098 91.0201 190.688 91.0201C190.278 91.0201 188.928 88.2101 187.688 84.7701C186.448 81.3301 185.078 78.0601 184.628 77.5101C184.188 76.9501 182.858 73.9001 181.668 70.7301C180.488 67.5601 177.748 61.6001 175.598 57.4901C173.438 53.3701 171.688 49.4401 171.708 48.7601C171.718 48.0801 169.578 43.1501 166.958 37.8101C162.428 28.6101 160.238 25.9601 158.638 27.7401C158.248 28.1701 150.938 44.2701 142.388 63.5201C133.848 82.7701 120.698 112.25 113.168 129.02C94.4384 170.73 94.3284 171 94.9384 171.61C95.2284 171.91 100.538 172.3 106.718 172.5C117.288 172.82 122.678 171.94 122.678 169.88C122.678 168.8 128.038 156.66 131.008 151.02C134.448 144.48 136.128 143.91 150.178 144.47C167.598 145.16 185.468 146.44 185.848 147.02C186.618 148.19 189.698 155.08 192.778 162.52C196.598 171.77 197.908 173.61 201.248 174.45C203.978 175.13 204.498 177.49 202.118 178.41C201.258 178.74 197.318 180.91 193.368 183.23C185.378 187.92 167.988 196.02 165.898 196.02C165.168 196.02 162.898 197.35 160.868 198.97C156.258 202.67 137.188 209.48 129.108 210.32C125.768 210.67 121.718 211.64 120.108 212.48C118.498 213.32 115.728 214.01 113.958 214.01C112.198 214.02 108.818 214.65 106.458 215.42C104.108 216.19 97.3184 217.31 91.3784 217.91C85.4484 218.51 79.8184 219.39 78.8784 219.87C76.4484 221.12 54.7884 221.86 44.1784 221.04ZM38.5084 178.98C35.4384 177.19 33.5184 168.89 33.7984 158.58C34.0084 150.56 34.5484 147.85 37.2184 141.29C38.9584 137.02 42.0784 130.6 44.1484 127.02C50.8284 115.52 50.5284 115.87 52.7084 117.04C55.5784 118.57 55.1684 121.07 50.6084 129.76C42.7584 144.73 40.1884 155.21 40.4484 171.27C40.5284 176.08 40.4984 180.01 40.3884 179.99C40.2684 179.97 39.4284 179.52 38.5084 178.98ZM143.078 120.63C142.328 118.67 145.818 108.37 149.278 102.34C150.598 100.04 151.678 97.2601 151.678 96.1601C151.678 95.0601 152.238 93.5701 152.928 92.8401C153.618 92.1101 154.978 89.8001 155.948 87.7001C157.958 83.3401 160.628 83.0301 161.708 87.0201C162.078 88.4001 164.028 93.0201 166.028 97.2901C168.038 101.57 169.678 105.51 169.678 106.06C169.678 106.6 170.128 107.83 170.668 108.78C172.498 111.97 174.618 119.48 173.888 120.19C173.498 120.58 166.548 121.21 158.448 121.6C145.188 122.24 143.658 122.14 143.078 120.63ZM293.308 111.23C292.938 110.63 293.258 109.78 294.008 109.33C294.768 108.89 295.858 107.62 296.438 106.52C297.018 105.42 300.718 101.27 304.668 97.3101C308.608 93.3401 311.588 89.6901 311.278 89.1901C310.978 88.6901 311.618 87.4801 312.698 86.5001C313.788 85.5101 314.678 83.9101 314.678 82.9401C314.678 81.9701 315.798 79.8401 317.178 78.2001C318.558 76.5701 319.678 74.7201 319.678 74.1101C319.678 73.4901 320.838 71.1501 322.248 68.9001C328.548 58.9401 331.608 40.8601 328.508 31.9701C326.998 27.6401 321.858 20.0201 320.438 20.0201C319.828 20.0201 318.628 19.4201 317.758 18.7001C316.888 17.9701 314.148 16.8001 311.678 16.1001C309.208 15.4001 306.398 14.4201 305.448 13.9301C304.498 13.4301 298.868 12.9801 292.948 12.9201C277.058 12.7601 274.498 12.3001 274.868 9.68008C275.118 7.97008 276.098 7.40007 279.678 6.86007C282.148 6.50007 287.638 5.68008 291.878 5.05008C301.558 3.61008 315.678 4.60008 321.558 7.13008C323.958 8.17008 326.548 9.02008 327.308 9.02008C328.058 9.02008 329.508 9.81008 330.518 10.7701C331.538 11.7301 333.738 13.2601 335.408 14.1601C341.478 17.4301 344.388 30.9901 341.718 43.5201C339.958 51.7801 331.278 68.2801 325.118 75.0901C324.328 75.9601 323.678 77.3201 323.668 78.1001C323.668 78.8801 319.858 83.5201 315.208 88.4201C310.548 93.3101 306.948 97.6501 307.198 98.0501C307.578 98.6701 305.558 100.69 297.388 107.83C296.948 108.21 296.008 109.38 295.288 110.42C294.448 111.65 293.748 111.94 293.308 111.23ZM223.298 23.4601C222.888 22.4001 223.578 21.7901 225.678 21.3701C227.298 21.0501 228.878 20.8501 229.188 20.9401C229.498 21.0201 230.458 20.3801 231.328 19.5101C232.208 18.6401 233.178 18.1801 233.488 18.5001C234.388 19.4001 231.508 21.7901 227.528 23.4501C224.278 24.8001 223.808 24.8001 223.298 23.4601ZM253.228 23.2801C251.598 23.0401 249.358 22.2101 248.248 21.4301C247.138 20.6601 245.488 20.0201 244.578 20.0201C240.938 20.0201 240.718 17.6701 243.768 11.3201C246.588 5.45008 251.478 0.0400729 254.008 7.29085e-05C254.648 -0.00992709 257.298 1.01007 259.888 2.25007C263.448 3.97007 264.888 5.35008 265.758 7.90008C267.488 12.9501 265.568 18.3401 260.908 21.5101C258.878 22.8901 256.978 23.9501 256.698 23.8701C256.408 23.7901 254.848 23.5201 253.228 23.2801Z" fill="#DC1524"/>
</svg>
