<svg width="809" height="258" viewBox="0 0 809 258" fill="none" xmlns="http://www.w3.org/2000/svg">
<path d="M338.795 95.9427C338.285 95.9427 337.665 96.7327 337.415 97.6927C337.135 98.7727 336.915 98.3827 336.845 96.6927C336.765 94.8627 337.225 93.9427 338.225 93.9427C339.055 93.9427 339.725 94.3927 339.725 94.9427C339.725 95.4927 339.305 95.9427 338.795 95.9427Z" fill="black"/>
<path d="M333.785 183.453C331.355 178.193 328.275 172.663 324.715 167.083L329.135 162.943C334.565 157.873 342.015 148.903 341.355 148.243C341.115 148.003 338.225 149.783 334.945 152.203C330.055 155.803 329.245 156.783 330.515 157.583C331.835 158.413 331.485 159.223 328.195 163.003L324.675 167.033C316.335 153.983 305.305 140.613 293.505 129.483L283.505 120.043L284.635 111.743C286.065 101.203 290.545 67.8727 291.325 61.9427C291.655 59.4627 292.435 57.1127 293.075 56.7127C294.365 55.8827 429.725 55.6427 429.725 56.4627C429.725 57.3427 422.955 70.2227 420.665 73.6927C417.175 79.0027 418.995 77.4427 426.055 69.0727C430.385 63.9327 433.055 59.5627 434.535 54.5827C434.055 57.2827 433.725 59.6627 433.725 60.6227V63.1627L435.805 60.8027C437.315 59.0927 437.735 58.9227 437.345 60.1927C436.485 62.9127 438.365 62.2527 440.655 59.0327C441.125 58.3827 441.605 57.6527 442.075 56.8727C441.715 57.6127 441.335 58.3827 440.935 59.1827C440.735 59.5827 442.515 59.0327 444.895 57.9527C449.135 56.0327 452.235 55.9827 590.005 55.9627C709.755 55.9427 730.865 56.1527 731.325 57.3427C731.845 58.6827 730.585 66.3027 725.225 94.4427C723.855 101.593 722.275 110.363 721.695 113.943C721.125 117.523 720.425 121.203 720.135 122.143C719.455 124.403 721.375 124.663 748.225 125.953C768.605 126.933 797.755 129.253 805.545 130.523L808.855 131.063L805.045 134.073C796.815 140.573 781.815 155.093 781.145 157.193C780.755 158.413 779.035 166.623 777.305 175.423L774.175 191.443L337.715 191.943L333.785 183.453ZM69.2247 257.283C56.4647 256.313 42.4847 253.763 34.7247 250.973C30.0447 249.293 27.7947 248.163 29.7247 248.463C44.7647 250.823 49.8047 251.123 65.2247 250.593C94.8647 249.563 142.745 242.053 167.725 234.513C170.205 233.763 176.725 231.943 182.225 230.463C204.065 224.583 231.555 215.013 252.725 205.913C271.785 197.733 283.295 191.123 297.255 180.363C305.625 173.913 310.805 168.833 305.695 172.093C304.295 172.983 299.005 176.013 293.935 178.823C288.865 181.643 282.585 185.273 279.995 186.883C277.395 188.503 275.125 189.673 274.935 189.483C274.755 189.303 275.085 185.393 275.675 180.793C276.975 170.593 281.615 136.733 282.345 132.033L282.875 128.633L292.385 138.033C297.615 143.213 305.455 152.163 309.815 157.943C317.205 167.713 328.725 188.153 328.725 191.483C328.725 192.713 325.615 192.943 308.855 192.943H288.985L277.475 199.873C260.295 210.223 237.025 221.553 214.475 230.553C211.865 231.593 209.735 232.693 209.725 233.003C209.725 233.903 226.205 237.743 238.225 239.653C246.075 240.903 255.095 241.403 269.725 241.413C288.025 241.413 291.125 241.173 298.655 239.113C307.795 236.613 311.475 234.983 316.445 231.203L319.655 228.753L322.585 230.843C324.195 231.993 327.885 233.533 330.775 234.273L336.045 235.623L331.915 239.753C326.255 245.413 317.685 249.503 304.955 252.623C295.075 255.043 292.515 255.253 272.725 255.273C254.885 255.293 249.015 254.913 238.225 253.043C223.015 250.413 207.195 246.503 200.965 243.833C198.545 242.793 195.695 241.943 194.635 241.943C193.575 241.943 186.385 245.093 178.655 248.943C170.925 252.793 163.915 255.943 163.085 255.943C162.245 255.943 158.805 254.323 155.435 252.353C149.435 248.833 149.185 248.783 143.765 249.863C118.555 254.863 83.4847 258.353 69.2247 257.283ZM338.795 95.9427C339.205 95.9427 339.555 95.6527 339.675 95.2527C341.105 96.6427 343.265 99.0427 345.475 101.763C348.905 105.983 353.775 111.693 356.285 114.443C363.005 121.803 369.175 129.063 369.555 130.063C369.745 130.543 373.675 130.943 378.285 130.943C382.605 130.943 384.755 131.203 385.985 130.263C387.495 129.133 387.665 126.223 388.795 118.943C389.435 114.823 390.335 110.973 390.795 110.393C391.255 109.823 391.635 108.473 391.635 107.393C391.635 106.323 391.855 104.093 392.115 102.443C392.385 100.793 392.895 96.8527 393.255 93.6927C393.625 90.5227 394.345 87.6727 394.865 87.3527C395.385 87.0327 395.535 85.9127 395.195 84.8627C394.865 83.8027 394.995 82.9427 395.485 82.9427C395.975 82.9427 396.435 80.5127 396.515 77.5427C396.595 74.5827 396.785 71.5427 396.945 70.7927C397.155 69.7827 395.475 69.3627 390.245 69.1427C384.905 68.9127 382.205 68.6927 380.575 69.9127C378.765 71.2627 378.275 74.3727 376.975 81.1627C375.775 87.3627 374.515 94.5627 374.155 97.1627C373.295 103.453 371.175 105.263 368.595 101.913C367.555 100.553 364.795 97.2527 362.465 94.5727C360.135 91.8927 358.045 89.1927 357.815 88.5827C357.585 87.9727 356.355 86.6527 355.065 85.6327C353.775 84.6227 352.725 83.3327 352.725 82.7627C352.725 82.1927 351.605 80.8427 350.225 79.7627C348.845 78.6827 347.725 77.2727 347.715 76.6227C347.705 75.9727 346.185 73.9627 344.315 72.1527L340.935 68.8627L331.625 69.1527L322.305 69.4427L319.635 83.4427C317.145 96.4927 313.595 116.523 312.225 125.213C311.895 127.283 311.915 129.433 312.255 129.993C312.635 130.603 316.415 130.903 321.555 130.733L330.215 130.443L331.225 125.943C331.775 123.463 332.595 120.873 333.035 120.183C333.485 119.493 333.565 118.033 333.225 116.933C332.875 115.843 333.005 114.943 333.525 114.943C334.035 114.943 334.455 113.203 334.455 111.063C334.455 106.743 335.675 99.7927 336.835 96.2427C336.835 96.3927 336.835 96.5327 336.845 96.6927C336.915 98.3827 337.135 98.7727 337.415 97.6927C337.665 96.7327 338.285 95.9427 338.795 95.9427ZM636.235 129.963C636.615 130.563 647.885 130.943 665.735 130.943H694.635L695.675 127.193C696.245 125.133 696.715 122.743 696.715 121.893C696.725 121.043 697.165 119.903 697.695 119.373C698.225 118.843 698.395 117.403 698.075 116.173C697.495 113.963 697.335 113.943 677.665 113.943C658.185 113.943 655.585 113.523 657.415 110.693C657.865 110.003 658.225 108.543 658.225 107.443C658.225 105.533 659.055 105.423 676.195 104.943L694.155 104.443L694.485 98.6927L694.815 92.9427H685.925C681.025 92.9427 673.595 92.6527 669.405 92.3027C661.885 91.6627 661.775 91.6127 662.065 89.0027C662.215 87.6227 662.325 86.6127 662.825 85.8827C664.175 83.9327 668.345 83.9427 683.735 83.9427H703.635L704.235 80.1927C704.565 78.1327 705.165 75.7727 705.555 74.9427C705.955 74.1127 706.125 72.4327 705.935 71.1927L705.585 68.9427H676.775C654.915 68.9427 647.735 69.2427 647.005 70.1927C646.475 70.8827 645.025 77.0627 643.785 83.9427C642.545 90.8227 640.485 102.063 639.205 108.943C635.805 127.173 635.565 128.873 636.235 129.963ZM391.215 129.923C391.575 130.503 396.035 130.943 401.565 130.943C407.285 130.943 409.945 130.963 411.835 129.763C413.535 128.683 414.605 126.613 416.705 122.643L419.185 117.943H434.955C447.345 117.943 450.725 118.223 450.725 119.263C450.725 119.983 451.415 122.913 452.265 125.763L453.805 130.943H472.785L472.425 127.443C472.225 125.523 471.795 123.673 471.465 123.343C471.135 123.013 471.105 122.113 471.405 121.343C471.695 120.573 471.515 119.943 470.995 119.943C469.975 119.943 467.085 109.263 467.535 107.193C467.685 106.503 467.415 105.943 466.925 105.943C466.165 105.943 464.315 99.7227 463.225 93.4427C463.035 92.3427 462.785 91.3327 462.675 91.1927C462.565 91.0527 462.385 90.6027 462.265 90.1927C462.155 89.7827 461.595 88.3227 461.035 86.9427C460.465 85.5627 459.635 82.6427 459.195 80.4427C458.285 75.9827 458.085 75.1627 457.725 74.4427C457.585 74.1727 457.375 73.6027 457.265 73.1927C456.105 69.0727 455.725 68.9427 445.345 68.9427C433.325 68.9427 432.885 69.1727 426.415 78.6227C423.845 82.3727 420.505 87.1427 418.985 89.2227C417.465 91.3027 412.625 98.2427 408.225 104.643C403.825 111.043 399.765 116.763 399.205 117.363C395.865 120.903 390.675 129.063 391.215 129.923ZM581.415 130.193C581.655 130.603 585.975 130.943 591.035 130.933L600.225 130.923L604.085 124.933C606.205 121.643 608.345 118.943 608.835 118.943C609.325 118.943 609.725 118.353 609.725 117.633C609.725 116.913 610.625 115.353 611.725 114.173C612.825 112.993 613.725 111.623 613.725 111.133C613.725 110.643 614.845 109.023 616.225 107.533C617.605 106.053 618.725 104.413 618.725 103.893C618.725 103.373 619.205 102.943 619.785 102.943C620.365 102.943 620.565 102.493 620.225 101.933C619.875 101.383 620.305 100.663 621.165 100.333C622.025 100.003 622.725 99.1027 622.725 98.3327C622.725 97.5727 623.175 96.9427 623.725 96.9427C624.275 96.9427 624.725 96.3127 624.725 95.5527C624.725 94.7827 625.465 93.8727 626.365 93.5227C627.275 93.1827 627.735 92.6127 627.385 92.2727C626.775 91.6527 633.485 81.7427 634.955 81.1127C635.375 80.9227 635.725 80.3327 635.725 79.7927C635.725 79.2427 637.055 76.8627 638.685 74.5027C640.315 72.1327 641.365 69.9127 641.015 69.5727C640.095 68.6427 623.445 68.8327 621.945 69.7927C621.235 70.2327 619.885 71.9827 618.945 73.6827C615.845 79.2327 595.245 109.843 594.565 109.893C593.875 109.943 592.205 100.263 592.565 98.2727C592.685 97.6227 592.335 96.8227 591.795 96.4827C591.255 96.1527 591.065 95.2227 591.375 94.4127C591.685 93.6027 591.485 92.9427 590.915 92.9427C590.355 92.9427 589.585 91.0327 589.195 88.6927C588.805 86.3527 588.285 83.5427 588.035 82.4427C587.785 81.3427 587.445 79.5427 587.285 78.4427C587.115 77.3427 586.875 76.2127 586.735 75.9427C586.605 75.6727 586.385 74.9927 586.255 74.4427C585.705 72.1827 585.415 70.8527 584.585 70.0627C583.385 68.9127 581.055 68.9427 575.165 68.9427C570.035 68.9427 565.625 69.2927 565.365 69.7227C564.825 70.5927 566.445 77.9327 569.485 88.4427C570.605 92.2927 573.645 103.093 576.255 112.443C578.865 121.793 581.185 129.783 581.415 130.193ZM482.065 129.373C482.545 130.633 484.365 130.943 491.175 130.943C499.645 130.943 499.685 130.933 500.285 128.193C500.615 126.683 501.345 124.473 501.925 123.293C502.495 122.103 502.675 120.673 502.325 120.103C501.975 119.543 502.165 118.793 502.735 118.433C503.305 118.083 503.655 116.813 503.515 115.613C503.085 112.043 504.745 101.053 505.815 100.393C506.355 100.053 506.535 98.9127 506.195 97.8627C505.865 96.8027 505.995 95.9427 506.495 95.9427C506.995 95.9427 507.435 93.9627 507.475 91.5527C507.595 83.5727 508.335 83.0527 519.965 82.7227L530.175 82.4427L530.925 77.9427C531.335 75.4627 531.915 72.4227 532.225 71.1827L532.775 68.9127L501.995 69.1827L471.225 69.4427L470.045 75.4027C469.405 78.6827 469.085 81.7227 469.355 82.1527C469.625 82.5927 474.095 82.9427 479.285 82.9427H488.725L488.705 86.1927C488.685 87.9827 488.245 91.2927 487.725 93.5527C487.205 95.8027 486.585 99.1827 486.335 101.053C486.095 102.913 484.895 109.703 483.675 116.123C482.455 122.553 481.725 128.513 482.065 129.373ZM678.725 182.833C678.725 183.523 681.015 183.943 684.725 183.943C688.525 183.943 690.725 183.523 690.725 182.813C690.725 182.083 691.955 181.883 694.225 182.253C696.145 182.563 697.725 182.393 697.725 181.883C697.725 181.363 698.225 180.943 698.845 180.943C700.645 180.943 706.395 175.443 705.955 174.133C705.735 173.483 706.035 172.943 706.615 172.943C707.185 172.943 707.405 172.273 707.085 171.443C706.775 170.613 706.995 169.943 707.595 169.943C708.265 169.943 708.445 168.793 708.075 166.943C707.735 165.233 707.895 163.943 708.465 163.943C709.005 163.943 709.235 162.823 708.965 161.443C708.705 160.063 708.895 158.943 709.385 158.943C710.935 158.943 709.325 146.113 707.545 144.333C704.285 141.073 683.415 140.703 675.605 143.763C672.405 145.023 668.465 149.823 669.155 151.623C669.435 152.353 669.195 152.943 668.615 152.943C667.965 152.943 667.815 154.103 668.225 155.943C668.595 157.623 668.465 158.943 667.945 158.943C667.425 158.943 666.445 162.353 665.775 166.523C664.415 174.963 665.385 179.383 668.835 180.473C669.875 180.803 670.725 181.393 670.725 181.783C670.725 182.173 672.525 182.323 674.725 182.113C677.205 181.873 678.725 182.153 678.725 182.833ZM445.195 182.193C453.465 182.363 460.525 182.603 460.895 182.723C461.255 182.843 461.705 182.573 461.895 182.133C462.075 181.683 464.025 180.593 466.225 179.703C468.425 178.813 470.105 177.593 469.965 176.993C469.825 176.383 470.355 175.633 471.155 175.333C471.945 175.023 472.355 174.143 472.055 173.363C471.755 172.583 471.895 171.943 472.365 171.933C472.835 171.933 473.335 169.593 473.475 166.743C473.615 163.893 474.205 161.263 474.785 160.903C475.385 160.533 475.555 159.113 475.175 157.603C474.755 155.923 474.915 154.943 475.615 154.943C478.015 154.943 476.755 148.693 473.795 145.863C470.025 142.253 467.095 141.783 450.755 142.143L437.275 142.443L436.365 146.943C435.855 149.423 435.455 152.793 435.465 154.443C435.475 156.093 435.145 157.673 434.745 157.943C434.345 158.213 433.145 163.723 432.085 170.173L430.165 181.893L445.195 182.193ZM517.155 179.693C516.715 181.833 516.995 181.943 522.705 181.943C527.385 181.943 528.725 181.613 528.725 180.443C528.725 179.613 529.165 178.943 529.695 178.943C530.255 178.943 530.415 177.633 530.075 175.943C529.665 173.913 529.875 172.943 530.705 172.943C531.395 172.943 531.685 172.273 531.365 171.443C530.925 170.293 531.585 169.943 534.245 169.943C537.465 169.943 537.905 170.353 540.725 175.943L543.755 181.943H555.765L553.725 177.943C552.605 175.743 552.035 173.933 552.455 173.923C552.875 173.923 552.705 173.583 552.065 173.173C550.455 172.153 552.195 169.983 556.985 167.063C559.045 165.803 560.485 164.363 560.175 163.853C559.865 163.353 560.065 162.943 560.635 162.943C561.195 162.943 561.405 162.273 561.085 161.443C560.775 160.613 560.905 159.943 561.375 159.943C561.855 159.943 562.245 156.903 562.245 153.193C562.245 142.903 561.515 142.523 540.715 142.133L524.155 141.813L522.925 147.763C522.245 151.033 521.995 154.483 522.355 155.423C522.715 156.373 522.575 157.433 522.045 157.793C521.505 158.153 520.295 162.713 519.345 167.943C518.405 173.173 517.415 178.453 517.155 179.693ZM711.175 179.693C710.715 181.833 710.985 181.943 716.705 181.943H722.725V178.943C722.725 177.293 723.185 175.943 723.745 175.943C724.335 175.943 724.495 174.883 724.135 173.443C723.725 171.803 723.925 170.943 724.725 170.943C725.525 170.943 725.725 170.083 725.315 168.443C724.955 167.023 725.115 165.943 725.685 165.943C726.295 165.943 726.445 164.183 726.065 161.443C725.655 158.393 725.815 156.943 726.585 156.943C727.215 156.943 727.725 157.373 727.725 157.903C727.725 158.433 730.765 164.043 734.475 170.383L741.225 181.913L747.435 181.923C752.365 181.943 753.845 181.583 754.555 180.193C755.045 179.233 755.255 177.883 755.005 177.193C754.765 176.503 755.095 175.943 755.755 175.943C756.525 175.943 756.725 175.063 756.315 173.443C755.965 172.033 756.115 170.943 756.685 170.943C757.255 170.943 757.415 169.663 757.075 167.943C756.745 166.293 756.905 164.943 757.425 164.943C757.955 164.943 758.185 163.593 757.935 161.943C757.695 160.293 757.935 158.943 758.475 158.943C759.005 158.943 759.235 157.823 758.965 156.443C758.705 155.063 758.935 153.943 759.475 153.943C760.025 153.943 760.515 151.663 760.575 148.873C760.645 146.083 760.955 143.383 761.265 142.873C761.595 142.343 759.305 141.943 755.865 141.943C750.025 141.943 749.865 142.013 749.225 144.963C748.855 146.623 748.425 149.793 748.255 152.013C748.095 154.233 747.675 156.323 747.345 156.663C747.005 157.003 746.725 158.523 746.725 160.053C746.725 161.573 746.315 163.073 745.815 163.383C744.525 164.183 741.625 162.913 742.285 161.843C742.595 161.343 742.335 160.943 741.725 160.943C741.115 160.943 740.855 160.543 741.165 160.043C741.465 159.553 741.015 158.883 740.155 158.553C739.295 158.223 738.875 157.503 739.225 156.953C739.565 156.393 739.295 155.943 738.615 155.943C737.945 155.943 737.655 155.683 737.975 155.363C738.295 155.043 737.675 153.893 736.605 152.823C735.535 151.753 734.925 150.433 735.245 149.903C735.575 149.373 735.335 148.943 734.725 148.943C734.115 148.943 733.885 148.493 734.225 147.943C734.565 147.393 734.335 146.943 733.725 146.943C733.115 146.943 732.835 146.573 733.115 146.123C734.325 144.163 729.585 141.943 724.195 141.943C722.005 141.943 720.565 141.873 719.495 142.463C717.255 143.713 716.645 147.913 714.285 161.943C712.845 170.463 711.445 178.453 711.175 179.693ZM529.315 130.083C529.605 130.553 533.835 130.943 538.715 130.943C543.815 130.943 546.125 131.073 547.335 129.983C548.485 128.953 548.645 126.823 549.235 122.443C549.605 119.693 550.355 116.903 550.905 116.233C551.455 115.573 551.605 114.563 551.255 113.983C550.895 113.413 550.965 112.383 551.405 111.693C551.855 111.003 552.245 109.543 552.295 108.443C552.515 102.923 553.985 94.9027 554.875 94.3527C555.435 94.0027 555.615 92.6527 555.285 91.3327C554.915 89.8627 555.125 88.9427 555.825 88.9427C556.455 88.9427 556.735 88.0827 556.445 86.9927C556.165 85.9127 556.555 81.5327 557.315 77.2427C558.065 72.9527 558.695 69.3327 558.705 69.1927C558.715 69.0527 554.735 68.9427 549.845 68.9427C543.175 68.9427 540.665 69.3127 539.725 70.4427C539.045 71.2727 538.725 71.9427 539.015 71.9427C539.305 71.9427 538.925 74.6227 538.155 77.9027C536.775 83.8427 534.215 97.6027 530.655 118.333C529.625 124.323 529.025 129.613 529.315 130.083ZM559.925 179.693C558.505 181.933 558.515 181.943 564.365 181.913C569.835 181.883 574.535 180.083 573.045 178.593C572.685 178.233 572.915 177.943 573.555 177.943C574.195 177.943 574.615 177.443 574.475 176.843C574.305 176.103 577.425 175.683 583.905 175.593L593.595 175.443L594.205 178.693C594.815 181.923 594.855 181.943 600.675 181.943H606.525L606.375 176.943C606.295 174.193 605.855 171.943 605.405 171.943C604.955 171.943 604.875 171.043 605.225 169.943C605.575 168.843 605.405 167.943 604.855 167.943C604.305 167.943 603.805 167.153 603.755 166.193C603.475 160.703 603.135 158.943 602.365 158.943C601.895 158.943 601.795 157.823 602.135 156.443C602.525 154.883 602.335 153.943 601.635 153.943C600.935 153.943 600.745 153.003 601.135 151.443C601.515 149.953 601.335 148.943 600.705 148.943C600.115 148.943 599.745 148.383 599.875 147.693C600.005 147.003 599.775 145.433 599.355 144.193C598.655 142.123 597.985 141.943 590.855 141.943H583.125L578.175 150.143C575.455 154.663 573.335 158.713 573.475 159.143C573.615 159.583 573.335 159.943 572.865 159.943C572.385 159.943 569.605 163.883 566.675 168.693C563.745 173.503 560.705 178.453 559.925 179.693ZM389.085 180.193C388.625 181.813 389.905 181.943 406.185 181.943C419.395 181.943 423.885 181.633 424.165 180.693C424.375 180.003 424.805 177.983 425.115 176.193L425.675 172.943H414.665C405.255 172.943 403.565 172.703 403.015 171.253C402.655 170.303 402.885 169.393 403.555 169.163C404.205 168.953 404.485 168.363 404.175 167.853C403.845 167.323 408.035 166.943 414.165 166.943H424.725V163.443C424.725 161.523 425.205 159.943 425.785 159.943C426.365 159.943 426.565 159.493 426.225 158.943C425.885 158.383 421.285 157.943 415.885 157.943H406.165L405.935 155.253C405.815 153.773 406.285 152.213 406.975 151.773C407.665 151.333 412.965 150.963 418.755 150.963L429.285 150.943L430.295 148.193C432.555 142.033 432.325 141.943 413.325 141.943H396.075L394.935 148.093C394.305 151.473 394.055 154.673 394.385 155.203C394.715 155.733 394.555 156.453 394.045 156.803C393.525 157.153 392.315 162.173 391.345 167.943C390.385 173.713 389.365 179.233 389.085 180.193ZM476.725 180.893C476.725 182.173 511.345 182.373 512.125 181.103C512.415 180.633 512.385 178.623 512.065 176.633L511.475 173.013L501.345 172.723L491.225 172.443L491.175 169.693L491.135 166.943H501.425C511.675 166.943 511.725 166.933 511.725 164.503C511.725 163.163 512.155 161.793 512.685 161.473C513.205 161.143 513.385 160.223 513.075 159.413C512.635 158.263 510.415 157.943 502.835 157.943C493.465 157.943 493.155 157.873 493.145 155.693C493.125 151.603 494.925 150.943 506.035 150.943C517.425 150.943 517.675 150.803 517.715 144.193C517.725 141.943 517.695 141.943 500.765 141.943H483.805L482.715 145.993C482.115 148.223 481.905 150.923 482.245 151.993C482.605 153.153 482.395 153.943 481.715 153.943C480.955 153.943 480.795 154.973 481.225 156.943C481.585 158.593 481.465 159.943 480.955 159.943C480.205 159.943 476.725 177.153 476.725 180.893ZM350.045 170.193L348.015 181.943H353.445C360.005 181.943 361.975 180.423 361.095 176.023C360.735 174.253 360.895 172.943 361.465 172.943C362.005 172.943 362.235 171.823 361.965 170.443L361.495 167.943H371.485C382.585 167.943 383.445 167.503 383.195 161.943L383.035 158.443L374.485 158.153C366.185 157.873 365.905 157.793 365.265 155.253C364.845 153.563 365.075 152.343 365.915 151.803C366.635 151.343 372.075 150.963 378.005 150.963C385.755 150.943 388.895 150.593 389.165 149.693C389.375 149.003 389.805 146.983 390.115 145.193L390.675 141.943H355.675L354.685 144.553C354.135 145.983 353.585 149.473 353.455 152.303C353.335 155.133 352.965 157.673 352.645 157.943C352.325 158.213 351.155 163.733 350.045 170.193ZM330.905 228.963C324.445 227.413 319.725 220.953 319.725 213.643C319.725 207.893 322.915 203.113 328.695 200.193C341.655 193.643 355.825 203.643 352.775 217.203C351.935 220.953 347.995 226.183 344.725 227.903C342.225 229.213 334.435 229.813 330.905 228.963ZM616.005 179.193L615.475 181.943H621.605C627.465 181.943 627.725 181.833 627.725 179.443C627.725 178.063 628.115 176.943 628.585 176.943C629.065 176.943 629.235 175.823 628.965 174.443C628.705 173.063 628.915 171.943 629.435 171.943C629.955 171.943 630.185 170.593 629.935 168.943C629.655 167.003 629.935 165.943 630.715 165.943C631.525 165.943 631.725 165.093 631.315 163.443C630.935 161.913 631.115 160.943 631.785 160.943C632.485 160.943 632.645 159.853 632.225 157.943C631.775 155.913 631.955 154.943 632.765 154.943C633.465 154.943 633.745 154.123 633.435 152.943C632.955 151.103 633.405 150.943 639.205 150.943C645.935 150.943 646.675 150.283 646.715 144.193L646.725 141.943H609.945L609.285 144.693C608.925 146.203 608.395 148.233 608.115 149.193C607.655 150.733 608.365 150.943 614.055 150.943C619.165 150.943 620.645 151.293 621.155 152.613C621.505 153.533 621.415 154.543 620.945 154.863C620.485 155.183 619.305 160.173 618.315 165.943C617.335 171.713 616.295 177.683 616.005 179.193ZM645.725 179.833C645.725 181.693 646.305 181.943 650.645 181.943C657.435 181.943 658.845 181.263 658.105 178.343C657.755 176.913 657.945 175.943 658.595 175.943C659.265 175.943 659.445 174.803 659.075 172.943C658.745 171.293 658.865 169.943 659.345 169.943C659.835 169.943 660.295 167.633 660.385 164.813C660.465 161.983 661.075 159.343 661.735 158.933C662.445 158.493 662.665 157.323 662.265 156.063C661.895 154.903 661.975 153.943 662.445 153.943C662.915 153.943 663.375 151.243 663.465 147.943L663.635 141.943H658.145C651.905 141.943 651.215 142.723 651.345 149.693C651.385 152.033 651.005 153.943 650.505 153.943C650.005 153.943 649.895 154.903 650.265 156.063C650.635 157.233 650.515 158.473 649.985 158.813C649.045 159.443 645.725 175.803 645.725 179.833ZM692.115 172.983C689.155 174.113 680.665 174.233 679.225 173.173C677.965 172.253 677.375 163.943 678.565 163.943C679.055 163.943 679.235 162.823 678.965 161.443C678.675 159.873 678.945 158.943 679.715 158.943C680.525 158.943 680.725 158.093 680.315 156.443C679.935 154.933 680.115 153.943 680.765 153.943C681.355 153.943 681.565 153.493 681.225 152.943C680.885 152.393 681.085 151.903 681.665 151.863C683.085 151.763 696.525 151.763 697.475 151.873C698.425 151.973 698.775 159.943 697.825 159.943C697.445 159.943 696.565 162.663 695.875 165.983C694.855 170.953 694.175 172.203 692.115 172.983ZM459.005 171.693C457.655 172.713 446.055 173.573 445.595 172.693C444.965 171.473 445.095 163.943 445.755 163.943C446.215 163.943 446.345 162.363 446.035 160.443C445.685 158.323 445.875 156.943 446.505 156.943C447.075 156.943 447.295 155.993 446.985 154.843C446.665 153.613 447.015 152.373 447.835 151.853C450.165 150.383 461.685 150.763 463.295 152.373C464.815 153.883 465.255 156.943 463.955 156.943C463.525 156.943 462.615 159.983 461.915 163.693C461.195 167.583 459.955 170.973 459.005 171.693ZM446.205 100.693L446.885 103.943H429.655L430.855 101.693C432.895 97.8627 439.165 88.4827 440.175 87.7627C440.695 87.3827 441.435 87.2627 441.805 87.4927C442.575 87.9727 445.185 95.7927 446.205 100.693ZM548.935 158.693C547.685 160.643 546.635 160.943 541.115 160.943C537.595 160.943 534.665 160.713 534.605 160.443C534.535 160.173 534.405 158.483 534.325 156.693C534.105 151.843 535.715 150.803 542.915 151.143C548.615 151.413 549.195 151.653 549.755 153.943C550.115 155.413 549.775 157.373 548.935 158.693ZM591.495 161.713L591.765 165.943H587.355C584.355 165.943 582.755 165.463 582.365 164.443C582.045 163.613 582.255 162.943 582.815 162.943C583.385 162.943 583.575 162.513 583.245 161.983C582.925 161.453 583.535 160.133 584.605 159.063C585.675 157.993 586.295 156.843 585.975 156.523C585.655 156.203 585.945 155.943 586.615 155.943C587.295 155.943 587.565 155.493 587.225 154.943C586.165 153.223 588.205 153.853 589.755 155.713C590.565 156.693 591.345 159.393 591.495 161.713ZM337.225 152.943C336.225 154.043 335.195 154.943 334.915 154.943C334.645 154.943 335.225 154.043 336.225 152.943C337.225 151.843 338.255 150.943 338.535 150.943C338.805 150.943 338.225 151.843 337.225 152.943ZM435.835 47.8427C436.035 45.8627 436.125 43.7527 436.115 41.4427C436.105 37.1227 435.395 33.4427 433.915 30.3027C436.305 35.0227 436.935 40.8427 435.835 47.8427ZM451.345 33.3727C451.015 36.6527 450.585 38.7427 448.525 43.4427C450.015 39.5227 451.085 35.8527 451.345 33.3727Z" fill="#002658"/>
<path d="M678.725 182.833C678.725 182.153 677.205 181.873 674.725 182.113C672.525 182.323 670.725 182.173 670.725 181.783C670.725 181.393 669.875 180.803 668.835 180.473C665.385 179.383 664.415 174.963 665.775 166.523C666.445 162.353 667.425 158.943 667.945 158.943C668.465 158.943 668.595 157.623 668.225 155.943C667.815 154.103 667.965 152.943 668.615 152.943C669.195 152.943 669.435 152.353 669.155 151.623C668.785 150.673 669.725 148.863 671.165 147.203C671.035 147.393 670.915 147.583 670.815 147.783C669.045 151.083 669.545 151.163 672.475 148.053C675.325 145.033 680.725 143.023 680.725 144.993C680.725 145.593 681.515 145.833 682.475 145.523C683.435 145.223 687.605 145.003 691.725 145.043C708.455 145.183 708.545 145.223 708.885 152.443L709.075 156.443L709.455 152.233C709.495 151.823 709.525 151.433 709.535 151.063C710.125 154.913 710.255 158.943 709.385 158.943C708.895 158.943 708.705 160.063 708.965 161.443C709.235 162.823 709.005 163.943 708.465 163.943C707.895 163.943 707.735 165.233 708.075 166.943C708.445 168.793 708.265 169.943 707.595 169.943C706.995 169.943 706.775 170.613 707.085 171.443C707.405 172.273 707.185 172.943 706.615 172.943C706.035 172.943 705.735 173.483 705.955 174.133C706.395 175.443 700.645 180.943 698.845 180.943C698.225 180.943 697.725 181.363 697.725 181.883C697.725 182.393 696.145 182.563 694.225 182.253C691.955 181.883 690.725 182.083 690.725 182.813C690.725 183.523 688.525 183.943 684.725 183.943C681.015 183.943 678.725 183.523 678.725 182.833ZM445.195 182.193L430.165 181.893L432.085 170.173C433.145 163.723 434.345 158.213 434.745 157.943C435.145 157.673 435.475 156.093 435.465 154.443C435.455 152.793 435.855 149.423 436.365 146.943L437.275 142.443L438.635 142.413C437.895 142.503 437.455 142.593 437.395 142.693C437.155 143.103 436.705 145.923 436.395 148.943L435.835 154.443L436.925 150.193C437.615 147.493 438.595 145.903 439.615 145.843C440.505 145.783 447.185 145.823 454.475 145.923C462.675 146.043 467.725 145.733 467.725 145.123C467.725 142.953 472.025 145.423 473.345 148.343L474.745 151.443L474.485 148.553C474.295 146.413 473.325 145.183 470.745 143.803C469.455 143.113 468.195 142.673 466.135 142.393C469.955 142.873 471.755 143.903 473.795 145.863C476.755 148.693 478.015 154.943 475.615 154.943C474.915 154.943 474.755 155.923 475.175 157.603C475.555 159.113 475.385 160.533 474.785 160.903C474.205 161.263 473.615 163.893 473.475 166.743C473.335 169.593 472.835 171.933 472.365 171.933C471.895 171.943 471.755 172.583 472.055 173.363C472.355 174.143 471.945 175.023 471.155 175.333C470.355 175.633 469.825 176.383 469.965 176.993C470.105 177.593 468.425 178.813 466.225 179.703C464.025 180.593 462.075 181.683 461.895 182.133C461.705 182.573 461.255 182.843 460.895 182.723C460.525 182.603 453.465 182.363 445.195 182.193ZM517.155 179.693C517.415 178.453 518.405 173.173 519.345 167.943C520.295 162.713 521.505 158.153 522.045 157.793C522.575 157.433 522.715 156.373 522.355 155.423C521.995 154.483 522.245 151.033 522.925 147.763L523.485 145.023L523.215 147.003C522.385 153.083 523.235 154.803 524.215 149.013L524.905 144.943L541.655 145.293C550.875 145.473 558.935 145.953 559.565 146.343C560.205 146.743 560.765 149.173 560.805 151.753C560.875 156.213 560.935 156.303 561.925 153.563C562.085 153.153 562.185 152.713 562.245 152.263C562.245 152.563 562.245 152.873 562.245 153.193C562.245 156.903 561.855 159.943 561.375 159.943C560.905 159.943 560.775 160.613 561.085 161.443C561.405 162.273 561.195 162.943 560.635 162.943C560.065 162.943 559.865 163.353 560.175 163.853C560.485 164.363 559.045 165.803 556.985 167.063C552.195 169.983 550.455 172.153 552.065 173.173C552.705 173.583 552.875 173.923 552.455 173.923C552.035 173.933 552.605 175.743 553.725 177.943L555.765 181.943H543.755L540.725 175.943C537.905 170.353 537.465 169.943 534.245 169.943C531.585 169.943 530.925 170.293 531.365 171.443C531.685 172.273 531.395 172.943 530.705 172.943C529.875 172.943 529.665 173.913 530.075 175.943C530.415 177.633 530.255 178.943 529.695 178.943C529.165 178.943 528.725 179.613 528.725 180.443C528.725 181.613 527.385 181.943 522.705 181.943C516.995 181.943 516.715 181.833 517.155 179.693ZM711.175 179.693C711.445 178.453 712.845 170.463 714.285 161.943C716.015 151.683 716.805 146.673 717.975 144.243L717.085 148.943C716.405 152.523 715.875 156.113 715.895 156.943C715.925 157.773 716.695 155.293 717.605 151.443L719.265 144.443L724.465 144.243L729.655 144.033L733.335 149.993C737.695 157.053 739.145 158.033 735.115 151.193C733.585 148.583 731.855 145.423 731.275 144.163C731.075 143.723 730.885 143.373 730.655 143.093C732.665 143.913 733.775 145.053 733.115 146.123C732.835 146.573 733.115 146.943 733.725 146.943C734.335 146.943 734.565 147.393 734.225 147.943C733.885 148.493 734.115 148.943 734.725 148.943C735.335 148.943 735.575 149.373 735.245 149.903C734.925 150.433 735.535 151.753 736.605 152.823C737.675 153.893 738.295 155.043 737.975 155.363C737.655 155.683 737.945 155.943 738.615 155.943C739.295 155.943 739.565 156.393 739.225 156.953C738.875 157.503 739.295 158.223 740.155 158.553C741.015 158.883 741.465 159.553 741.165 160.043C740.855 160.543 741.115 160.943 741.725 160.943C742.335 160.943 742.595 161.343 742.285 161.843C741.625 162.913 744.525 164.183 745.815 163.383C746.315 163.073 746.725 161.573 746.725 160.053C746.725 158.523 747.005 157.003 747.345 156.663C747.675 156.323 748.095 154.233 748.255 152.013C748.425 149.793 748.855 146.623 749.225 144.963C749.405 144.103 749.555 143.493 749.815 143.053C749.745 143.233 749.715 143.443 749.715 143.693C749.705 144.653 749.495 147.243 749.245 149.443C748.835 153.063 748.895 152.993 749.865 148.693C750.935 143.953 750.955 143.943 755.105 143.943H759.275L758.895 147.943C758.685 150.143 758.925 151.943 759.425 151.943C759.925 151.943 760.445 150.063 760.585 147.763C760.625 147.053 760.685 146.343 760.755 145.683C760.665 146.643 760.605 147.753 760.575 148.873C760.515 151.663 760.025 153.943 759.475 153.943C758.935 153.943 758.705 155.063 758.965 156.443C759.235 157.823 759.005 158.943 758.475 158.943C757.935 158.943 757.695 160.293 757.935 161.943C758.185 163.593 757.955 164.943 757.425 164.943C756.905 164.943 756.745 166.293 757.075 167.943C757.415 169.663 757.255 170.943 756.685 170.943C756.115 170.943 755.965 172.033 756.315 173.443C756.725 175.063 756.525 175.943 755.755 175.943C755.095 175.943 754.765 176.503 755.005 177.193C755.255 177.883 755.045 179.233 754.555 180.193C753.845 181.583 752.365 181.943 747.435 181.923L741.225 181.913L734.475 170.383C730.765 164.043 727.725 158.433 727.725 157.903C727.725 157.373 727.215 156.943 726.585 156.943C725.815 156.943 725.655 158.393 726.065 161.443C726.445 164.183 726.295 165.943 725.685 165.943C725.115 165.943 724.955 167.023 725.315 168.443C725.725 170.083 725.525 170.943 724.725 170.943C723.925 170.943 723.725 171.803 724.135 173.443C724.495 174.883 724.335 175.943 723.745 175.943C723.185 175.943 722.725 177.293 722.725 178.943V181.943H716.705C710.985 181.943 710.715 181.833 711.175 179.693ZM559.925 179.693C560.705 178.453 563.745 173.503 566.675 168.693C569.605 163.883 572.385 159.943 572.865 159.943C573.335 159.943 573.615 159.583 573.475 159.143C573.335 158.713 575.455 154.663 578.175 150.143L583.125 141.943H590.855C597.525 141.943 598.535 142.093 599.215 143.823C598.365 142.123 597.285 141.943 590.815 141.953C583.585 141.953 583.155 142.083 581.665 144.703C580.805 146.213 578.855 149.583 577.315 152.193C573.335 158.993 574.745 158.073 579.085 151.043L582.725 145.143H597.815L598.455 148.293C599.095 151.373 599.115 151.383 599.745 148.943C599.795 148.713 599.845 148.473 599.875 148.213C599.965 148.643 600.275 148.943 600.705 148.943C601.335 148.943 601.515 149.953 601.135 151.443C600.745 153.003 600.935 153.943 601.635 153.943C602.335 153.943 602.525 154.883 602.135 156.443C601.795 157.823 601.895 158.943 602.365 158.943C603.135 158.943 603.475 160.703 603.755 166.193C603.805 167.153 604.305 167.943 604.855 167.943C605.405 167.943 605.575 168.843 605.225 169.943C604.875 171.043 604.955 171.943 605.405 171.943C605.855 171.943 606.295 174.193 606.375 176.943L606.525 181.943H600.675C594.855 181.943 594.815 181.923 594.205 178.693L593.595 175.443L583.905 175.593C577.425 175.683 574.305 176.103 574.475 176.843C574.615 177.443 574.195 177.943 573.555 177.943C572.915 177.943 572.685 178.233 573.045 178.593C574.535 180.083 569.835 181.883 564.365 181.913C558.515 181.943 558.505 181.933 559.925 179.693ZM476.725 180.893C476.725 177.153 480.205 159.943 480.955 159.943C481.465 159.943 481.585 158.593 481.225 156.943C480.795 154.973 480.955 153.943 481.715 153.943C482.395 153.943 482.605 153.153 482.245 151.993C481.905 150.923 482.115 148.223 482.715 145.993L482.795 145.673C482.765 146.393 482.805 147.253 482.845 148.273C482.915 150.403 483.115 150.783 483.445 149.443C484.645 144.563 486.705 143.943 501.685 143.943H515.725V149.893C515.695 149.913 515.655 149.933 515.615 149.943L504.475 150.153L493.225 150.363L504.215 150.693C510.385 150.873 513.775 150.803 515.615 149.943H515.725V149.893C517.015 149.243 517.505 148.173 517.655 146.483C517.415 150.833 515.925 150.943 506.035 150.943C494.925 150.943 493.125 151.603 493.145 155.693C493.155 157.873 493.465 157.943 502.835 157.943C510.415 157.943 512.635 158.263 513.075 159.413C513.385 160.223 513.205 161.143 512.685 161.473C512.155 161.793 511.725 163.163 511.725 164.503C511.725 166.933 511.675 166.943 501.425 166.943H491.135L491.175 169.693L491.225 172.443L501.345 172.723L511.475 173.013L512.065 176.633C512.385 178.623 512.415 180.633 512.125 181.103C511.345 182.373 476.725 182.173 476.725 180.893ZM389.085 180.193C389.365 179.233 390.385 173.713 391.345 167.943C392.315 162.173 393.525 157.153 394.045 156.803C394.555 156.453 394.715 155.733 394.385 155.203C394.055 154.673 394.305 151.473 394.935 148.093L395.445 145.353L395.215 147.003C394.415 152.833 395.155 154.793 396.155 149.493L396.815 145.943H405.575C410.775 145.943 414.785 145.483 415.465 144.803C416.275 143.993 417.725 143.953 420.585 144.683C423.365 145.383 424.905 145.363 425.655 144.613C426.415 143.853 426.725 143.963 426.745 144.993C426.755 146.223 426.905 146.223 427.725 144.943C428.465 143.803 428.695 144.213 428.705 146.663L428.725 149.883L416.985 150.163C407.405 150.393 405.225 150.723 405.145 151.943C405.075 152.803 405.215 152.913 405.455 152.193C405.755 151.293 409.105 150.943 417.575 150.943H429.285L418.755 150.963C412.965 150.963 407.665 151.333 406.975 151.773C406.285 152.213 405.815 153.773 405.935 155.253L406.165 157.943H415.885C421.285 157.943 425.885 158.383 426.225 158.943C426.565 159.493 426.365 159.943 425.785 159.943C425.205 159.943 424.725 161.523 424.725 163.443V166.943H414.165C408.035 166.943 403.845 167.323 404.175 167.853C404.485 168.363 404.205 168.953 403.555 169.163C402.885 169.393 402.655 170.303 403.015 171.253C403.565 172.703 405.255 172.943 414.665 172.943H425.675L425.115 176.193C424.805 177.983 424.375 180.003 424.165 180.693C423.885 181.633 419.395 181.943 406.185 181.943C389.905 181.943 388.625 181.813 389.085 180.193ZM350.045 170.193C351.155 163.733 352.325 158.213 352.645 157.943C352.965 157.673 353.335 155.133 353.455 152.303C353.585 149.473 354.135 145.983 354.685 144.553L355.335 142.833C355.085 143.553 354.665 146.163 354.375 148.943L353.785 154.443L356.225 144.503L372.355 144.473C386.165 144.443 388.435 144.663 388.175 145.943C388.015 146.773 387.845 147.993 387.805 148.663C387.745 149.523 384.415 149.973 376.475 150.193L365.225 150.513L377.005 150.733C384.505 150.863 387.905 150.683 388.875 150.043C387.915 150.683 384.665 150.953 378.005 150.963C372.075 150.963 366.635 151.343 365.915 151.803C365.075 152.343 364.845 153.563 365.265 155.253C365.905 157.793 366.185 157.873 374.485 158.153L383.035 158.443L383.195 161.943C383.445 167.503 382.585 167.943 371.485 167.943H361.495L361.965 170.443C362.235 171.823 362.005 172.943 361.465 172.943C360.895 172.943 360.735 174.253 361.095 176.023C361.975 180.423 360.005 181.943 353.445 181.943H348.015L350.045 170.193ZM616.005 179.193C616.295 177.683 617.335 171.713 618.315 165.943C619.305 160.173 620.485 155.183 620.945 154.863C621.415 154.543 621.505 153.533 621.155 152.613C620.645 151.293 619.165 150.943 614.055 150.943C610.675 150.943 609.045 150.873 608.385 150.483C609.045 150.833 610.625 150.853 613.905 150.763L620.225 150.573L614.975 150.203C611.295 149.953 609.725 149.413 609.725 148.423C609.725 145.793 613.395 145.033 629.075 144.413L644.725 143.793V146.813C644.725 149.793 644.625 149.853 638.975 150.203L633.225 150.563L639.355 150.753C642.315 150.843 644.095 150.763 645.155 150.093C644.075 150.803 642.255 150.943 639.205 150.943C633.405 150.943 632.955 151.103 633.435 152.943C633.745 154.123 633.465 154.943 632.765 154.943C631.955 154.943 631.775 155.913 632.225 157.943C632.645 159.853 632.485 160.943 631.785 160.943C631.115 160.943 630.935 161.913 631.315 163.443C631.725 165.093 631.525 165.943 630.715 165.943C629.935 165.943 629.655 167.003 629.935 168.943C630.185 170.593 629.955 171.943 629.435 171.943C628.915 171.943 628.705 173.063 628.965 174.443C629.235 175.823 629.065 176.943 628.585 176.943C628.115 176.943 627.725 178.063 627.725 179.443C627.725 181.833 627.465 181.943 621.605 181.943H615.475L616.005 179.193ZM645.725 179.833C645.725 175.803 649.045 159.443 649.985 158.813C650.515 158.473 650.635 157.233 650.265 156.063C649.895 154.903 650.005 153.943 650.505 153.943C651.005 153.943 651.385 152.033 651.345 149.693C651.285 146.423 651.405 144.523 652.185 143.413L652.075 146.443C651.995 148.643 652.135 149.453 652.385 148.243C652.735 146.583 653.885 145.833 657.035 145.193C661.155 144.373 661.235 144.413 661.735 147.403C662.155 149.893 662.385 150.113 662.985 148.613C663.185 148.123 663.365 147.403 663.495 146.643L663.465 147.943C663.375 151.243 662.915 153.943 662.445 153.943C661.975 153.943 661.895 154.903 662.265 156.063C662.665 157.323 662.445 158.493 661.735 158.933C661.075 159.343 660.465 161.983 660.385 164.813C660.295 167.633 659.835 169.943 659.345 169.943C658.865 169.943 658.745 171.293 659.075 172.943C659.445 174.803 659.265 175.943 658.595 175.943C657.945 175.943 657.755 176.913 658.105 178.343C658.845 181.263 657.435 181.943 650.645 181.943C646.305 181.943 645.725 181.693 645.725 179.833ZM692.115 172.983C694.175 172.203 694.855 170.953 695.875 165.983C696.565 162.663 697.445 159.943 697.825 159.943C698.775 159.943 698.425 151.973 697.475 151.873C696.525 151.763 683.085 151.763 681.665 151.863C681.085 151.903 680.885 152.393 681.225 152.943C681.565 153.493 681.355 153.943 680.765 153.943C680.115 153.943 679.935 154.933 680.315 156.443C680.725 158.093 680.525 158.943 679.715 158.943C678.945 158.943 678.675 159.873 678.965 161.443C679.235 162.823 679.055 163.943 678.565 163.943C677.375 163.943 677.965 172.253 679.225 173.173C680.665 174.233 689.155 174.113 692.115 172.983ZM459.005 171.693C459.955 170.973 461.195 167.583 461.915 163.693C462.615 159.983 463.525 156.943 463.955 156.943C465.255 156.943 464.815 153.883 463.295 152.373C461.685 150.763 450.165 150.383 447.835 151.853C447.015 152.373 446.665 153.613 446.985 154.843C447.295 155.993 447.075 156.943 446.505 156.943C445.875 156.943 445.685 158.323 446.035 160.443C446.345 162.363 446.215 163.943 445.755 163.943C445.095 163.943 444.965 171.473 445.595 172.693C446.055 173.573 457.655 172.713 459.005 171.693ZM548.935 158.693C549.775 157.373 550.115 155.413 549.755 153.943C549.195 151.653 548.615 151.413 542.915 151.143C535.715 150.803 534.105 151.843 534.325 156.693C534.405 158.483 534.535 160.173 534.605 160.443C534.665 160.713 537.595 160.943 541.115 160.943C546.635 160.943 547.685 160.643 548.935 158.693ZM591.495 161.713C591.345 159.393 590.565 156.693 589.755 155.713C588.205 153.853 586.165 153.223 587.225 154.943C587.565 155.493 587.295 155.943 586.615 155.943C585.945 155.943 585.655 156.203 585.975 156.523C586.295 156.843 585.675 157.993 584.605 159.063C583.535 160.133 582.925 161.453 583.245 161.983C583.575 162.513 583.385 162.943 582.815 162.943C582.255 162.943 582.045 163.613 582.365 164.443C582.755 165.463 584.355 165.943 587.355 165.943H591.765L591.495 161.713ZM328.195 163.003C331.485 159.223 331.835 158.413 330.515 157.583C329.245 156.783 330.055 155.803 334.945 152.203C338.225 149.783 341.115 148.003 341.355 148.243C342.015 148.903 334.565 157.873 329.135 162.943L324.325 167.443L328.195 163.003ZM337.225 152.943C338.225 151.843 338.805 150.943 338.535 150.943C338.255 150.943 337.225 151.843 336.225 152.943C335.225 154.043 334.645 154.943 334.915 154.943C335.195 154.943 336.225 154.043 337.225 152.943ZM483.335 143.673L483.805 141.943H497.995C488.015 141.943 484.505 142.033 483.335 143.673ZM355.365 142.773L355.675 141.943H373.175C363.635 141.943 355.645 142.283 355.395 142.693C355.385 142.713 355.375 142.743 355.365 142.773ZM558.385 143.563C561.205 144.583 561.975 146.413 562.175 149.823C561.755 147.343 560.315 144.873 558.385 143.563ZM653.685 142.363C654.695 142.023 656.135 141.943 658.145 141.943H663.635L663.605 142.923C663.275 141.923 662.115 141.923 657.975 142.143L653.685 142.363ZM673.185 145.243C673.985 144.603 674.815 144.073 675.605 143.763C680.645 141.793 691.095 141.243 698.765 141.973C696.755 141.823 694.395 141.763 691.645 141.743C682.835 141.703 676.605 142.893 673.185 145.243ZM703.455 144.343C703.785 144.673 703.195 144.903 702.145 144.863C700.975 144.813 700.735 144.583 701.535 144.263C702.255 143.973 703.125 144.003 703.455 144.343ZM719.655 142.383C720.705 141.873 722.115 141.943 724.195 141.943C725.005 141.943 725.805 141.993 726.565 142.083C725.915 142.093 725.155 142.123 724.275 142.163L719.655 142.383ZM524.125 141.943L524.155 141.813L530.835 141.943H524.125ZM705.335 143.173C706.345 143.503 707.105 143.893 707.545 144.333C707.625 144.413 707.715 144.523 707.795 144.653C707.175 144.053 706.365 143.563 705.335 143.173ZM750.595 142.353C751.425 141.963 752.885 141.943 755.715 141.943C752.945 141.943 751.415 142.033 750.595 142.353ZM755.805 141.943H755.865C756.895 141.943 757.815 141.983 758.595 142.043C757.785 141.983 756.835 141.943 755.805 141.943Z" fill="#F0F8FC"/>
<path d="M39.2047 241.973C31.2247 240.833 19.5747 236.693 13.6647 232.903C3.27467 226.243 -1.97533 213.143 0.684671 200.533C3.61467 186.643 16.6847 167.123 36.9647 146.353C48.7747 134.253 50.7247 131.803 50.7247 129.093C50.7247 126.073 48.6847 110.213 43.1947 70.4427C41.8247 60.5427 40.4847 50.8127 40.2247 48.8127C39.9247 46.5727 40.2147 44.8027 40.9847 44.1927C41.6647 43.6527 49.6547 40.8527 58.7247 37.9727C81.1847 30.8427 113.705 20.3327 122.225 17.4527C149.285 8.29269 162.045 4.72269 165.865 5.23269C168.055 5.53269 185.685 10.9727 205.035 17.3227C224.395 23.6727 250.345 32.1827 262.725 36.2127L285.225 43.5527L285.555 46.9327C285.735 48.7927 284.965 56.6427 283.845 64.3727C282.735 72.1127 281.545 80.9227 281.215 83.9427C280.885 86.9627 279.755 95.7427 278.715 103.443C277.665 111.143 275.645 126.443 274.215 137.443C272.785 148.443 270.745 163.523 269.675 170.943C268.615 178.363 267.735 186.053 267.735 188.013C267.725 191.453 267.455 191.713 260.975 194.733C245.935 201.733 210.245 214.513 190.725 219.883C160.715 228.133 156.575 229.163 134.225 233.883C105.025 240.063 89.7047 242.003 66.7247 242.433C54.9047 242.653 42.5147 242.443 39.2047 241.973ZM94.9547 184.693L90.9547 193.943H120.405L121.665 191.193C122.365 189.683 124.875 183.473 127.255 177.393C129.635 171.313 132.145 165.123 132.815 163.643L134.045 160.943L194.225 160.973L200.715 177.463L207.215 193.943H222.505C236.745 193.943 237.735 193.823 236.885 192.193C236.385 191.233 232.055 181.443 227.265 170.443C205.955 121.553 201.135 110.513 194.695 95.9427C178.645 59.6227 165.405 29.2527 164.505 26.6927C163.565 24.0327 161.725 22.8827 161.725 24.9627C161.725 25.8227 158.375 33.8527 141.725 72.9427C130.695 98.8227 109.905 148.333 107.715 153.943C104.905 161.123 99.2847 174.673 94.9547 184.693ZM65.7247 227.833C72.6547 228.933 115.795 229.183 117.455 228.133C118.685 227.353 114.425 224.743 77.5846 203.693L61.9347 194.753L60.3747 186.103C58.7647 177.243 56.0647 160.703 53.1347 141.863L51.4847 131.283L47.2447 135.863C43.1947 140.233 29.8147 159.953 26.4047 166.573C16.3947 186.033 17.4347 201.933 29.4547 213.113C37.7347 220.823 48.1147 225.033 65.7247 227.833ZM433.725 60.6227C433.725 59.2227 434.435 54.7827 435.295 50.7627C438.975 33.5927 433.175 22.9527 417.355 17.7927C407.405 14.5527 387.905 14.7527 364.295 18.3427C354.985 19.7627 347.305 20.8127 347.215 20.6827C346.655 19.8027 344.625 8.70267 344.965 8.37267C345.195 8.14267 350.515 6.81267 356.775 5.43267C380.315 0.222669 408.125 -1.47733 423.035 1.37267C442.685 5.13267 453.055 16.8527 451.345 33.3727C450.715 39.4327 445.225 52.6227 440.655 59.0327C438.365 62.2527 436.485 62.9127 437.345 60.1927C437.735 58.9227 437.315 59.0927 435.805 60.8027L433.725 63.1627V60.6227ZM183.145 133.193L184.755 136.943H141.775L142.815 134.193C144.775 129.063 160.775 88.4527 161.755 86.1327C162.655 84.0027 164.725 83.8827 164.725 85.9627C164.725 86.7927 179.415 124.463 183.145 133.193ZM276.225 33.7027C274.025 33.1527 271.555 32.5027 270.725 32.2427C269.185 31.7727 275.815 29.2427 297.975 21.8527C309.915 17.8727 310.725 17.4427 310.725 15.0227C310.735 11.7527 313.875 6.54267 317.135 4.40267C323.615 0.162671 333.665 2.52269 337.765 9.23269C340.375 13.5127 340.375 21.3627 337.765 25.6427C333.195 33.1427 322.215 34.2227 315.205 27.8627C313.235 26.0727 312.835 26.1427 299.365 30.4827C285.095 35.0827 283.005 35.3827 276.225 33.7027Z" fill="#EA0325"/>
<path d="M65.7247 227.833C48.1147 225.033 37.7347 220.823 29.4547 213.113C17.4347 201.933 16.3947 186.033 26.4047 166.573C29.8147 159.953 43.1947 140.233 47.2447 135.863L51.4847 131.283L53.1347 141.863C56.0647 160.703 58.7647 177.243 60.3747 186.103L61.9347 194.753L77.5847 203.693C114.425 224.743 118.685 227.353 117.455 228.133C115.795 229.183 72.6547 228.933 65.7247 227.833ZM94.9547 184.693C99.2847 174.673 104.905 161.123 107.715 153.943C109.905 148.333 130.695 98.8227 141.725 72.9427C158.375 33.8527 161.725 25.8227 161.725 24.9627C161.725 22.8827 163.565 24.0327 164.505 26.6927C165.405 29.2527 178.645 59.6227 194.695 95.9427C201.135 110.513 205.955 121.553 227.265 170.443C232.055 181.443 236.385 191.233 236.885 192.193C237.735 193.823 236.745 193.943 222.505 193.943H207.215L200.715 177.463L194.225 160.973L164.135 160.963L134.045 160.943L132.815 163.643C132.145 165.123 129.635 171.313 127.255 177.393C124.875 183.473 122.365 189.683 121.665 191.193L120.405 193.943H105.675H90.9547L94.9547 184.693ZM183.145 133.193C179.415 124.463 164.725 86.7927 164.725 85.9627C164.725 83.8827 162.655 84.0027 161.755 86.1327C160.775 88.4527 144.775 129.063 142.815 134.193L141.775 136.943H163.265H184.755L183.145 133.193ZM715.895 156.943C715.875 156.113 716.405 152.523 717.085 148.943L718.315 142.443L724.275 142.163C729.625 141.913 730.335 142.113 731.275 144.163C731.855 145.423 733.585 148.583 735.115 151.193C739.145 158.033 737.695 157.053 733.335 149.993L729.655 144.033L724.465 144.243L719.265 144.443L717.605 151.443C716.695 155.293 715.925 157.773 715.895 156.943ZM577.315 152.193C578.855 149.583 580.805 146.213 581.665 144.703C583.155 142.083 583.585 141.953 590.815 141.953C597.725 141.943 598.495 142.143 599.395 144.193C599.935 145.433 600.095 147.563 599.745 148.943C599.115 151.383 599.095 151.373 598.455 148.293L597.815 145.143H590.265H582.725L579.085 151.043C574.745 158.073 573.335 158.993 577.315 152.193ZM560.805 151.753C560.765 149.173 560.205 146.743 559.565 146.343C558.935 145.953 550.875 145.473 541.655 145.293L524.905 144.943L524.215 149.013C523.235 154.803 522.385 153.083 523.215 147.003L523.915 141.943H539.255C547.695 141.943 555.755 142.383 557.165 142.923C560.815 144.303 563.285 149.833 561.925 153.563C560.935 156.303 560.875 156.213 560.805 151.753ZM708.885 152.443C708.545 145.223 708.455 145.183 691.725 145.043C687.605 145.003 683.435 145.223 682.475 145.523C681.515 145.833 680.725 145.593 680.725 144.993C680.725 143.023 675.325 145.033 672.475 148.053C669.545 151.163 669.045 151.083 670.815 147.783C672.965 143.753 680.085 141.693 691.645 141.743C707.135 141.823 710.235 143.643 709.455 152.233L709.075 156.443L708.885 152.443ZM703.455 144.343C703.125 144.003 702.255 143.973 701.535 144.263C700.735 144.583 700.975 144.813 702.145 144.863C703.195 144.903 703.785 144.673 703.455 144.343ZM354.375 148.943C354.695 145.923 355.155 143.103 355.395 142.693C355.645 142.283 363.685 141.943 373.255 141.943H390.675L390.115 145.193C389.805 146.983 389.375 149.003 389.165 149.693C388.885 150.613 385.715 150.883 377.005 150.733L365.225 150.513L376.475 150.193C384.415 149.973 387.745 149.523 387.805 148.663C387.845 147.993 388.015 146.773 388.175 145.943C388.435 144.663 386.165 144.443 372.355 144.473L356.225 144.503L355.005 149.473L353.785 154.443L354.375 148.943ZM405.145 151.943C405.225 150.723 407.405 150.393 416.985 150.163L428.725 149.883L428.705 146.663C428.695 144.213 428.465 143.803 427.725 144.943C426.905 146.223 426.755 146.223 426.745 144.993C426.725 143.963 426.415 143.853 425.655 144.613C424.905 145.363 423.365 145.383 420.585 144.683C417.725 143.953 416.275 143.993 415.465 144.803C414.785 145.483 410.775 145.943 405.575 145.943H396.815L396.155 149.493C395.155 154.793 394.415 152.833 395.215 147.003L395.915 141.943H413.245C432.335 141.943 432.555 142.023 430.295 148.193L429.285 150.943H417.575C409.105 150.943 405.755 151.293 405.455 152.193C405.215 152.913 405.075 152.803 405.145 151.943ZM436.395 148.943C436.705 145.923 437.155 143.103 437.395 142.693C437.645 142.283 444.465 141.943 452.545 141.943C464.975 141.943 467.795 142.233 470.745 143.803C473.325 145.183 474.295 146.413 474.485 148.553L474.745 151.443L473.345 148.343C472.025 145.423 467.725 142.953 467.725 145.123C467.725 145.733 462.675 146.043 454.475 145.923C447.185 145.823 440.505 145.783 439.615 145.843C438.595 145.903 437.615 147.493 436.925 150.193L435.835 154.443L436.395 148.943ZM749.245 149.443C749.495 147.243 749.705 144.653 749.715 143.693C749.725 142.223 750.685 141.943 755.785 141.943C759.115 141.943 761.615 142.313 761.335 142.763C761.055 143.213 760.715 145.463 760.585 147.763C760.445 150.063 759.925 151.943 759.425 151.943C758.925 151.943 758.685 150.143 758.895 147.943L759.275 143.943H755.105C750.955 143.943 750.935 143.953 749.865 148.693C748.895 152.993 748.835 153.063 749.245 149.443ZM482.845 148.273C482.605 141.823 482.265 141.943 500.835 141.943H517.725V144.753C517.725 150.443 516.345 151.053 504.215 150.693L493.225 150.363L504.475 150.153L515.725 149.943V146.943V143.943H501.685C486.705 143.943 484.645 144.563 483.445 149.443C483.115 150.783 482.915 150.403 482.845 148.273ZM608.115 149.193C608.395 148.233 608.925 146.203 609.285 144.693L609.945 141.943H628.335H646.725L646.715 144.193C646.675 150.303 645.945 150.953 639.355 150.753L633.225 150.563L638.975 150.203C644.625 149.853 644.725 149.793 644.725 146.813V143.793L629.075 144.413C613.395 145.033 609.725 145.793 609.725 148.423C609.725 149.413 611.295 149.953 614.975 150.203L620.225 150.573L613.905 150.763C608.315 150.923 607.645 150.743 608.115 149.193ZM652.075 146.443L652.225 142.443L657.975 142.143C663.505 141.853 663.725 141.943 663.725 144.313C663.725 145.673 663.395 147.603 662.985 148.613C662.385 150.113 662.155 149.893 661.735 147.403C661.235 144.413 661.155 144.373 657.035 145.193C653.885 145.833 652.735 146.583 652.385 148.243C652.135 149.453 651.995 148.643 652.075 146.443ZM312.255 129.993C311.915 129.433 311.895 127.283 312.225 125.213C313.595 116.523 317.145 96.4927 319.635 83.4427L322.305 69.4427L331.625 69.1527L340.935 68.8627L344.315 72.1527C346.185 73.9627 347.705 75.9727 347.715 76.6227C347.725 77.2727 348.845 78.6827 350.225 79.7627C351.605 80.8427 352.725 82.1927 352.725 82.7627C352.725 83.3327 353.775 84.6227 355.065 85.6327C356.355 86.6527 357.585 87.9727 357.815 88.5827C358.045 89.1927 360.135 91.8927 362.465 94.5727C364.795 97.2527 367.555 100.553 368.595 101.913C371.175 105.263 373.295 103.453 374.155 97.1627C374.515 94.5627 375.775 87.3627 376.975 81.1627C379.455 68.2427 378.995 68.6527 390.245 69.1427C395.475 69.3627 397.155 69.7827 396.945 70.7927C396.785 71.5427 396.595 74.5827 396.515 77.5427C396.435 80.5127 395.975 82.9427 395.485 82.9427C394.995 82.9427 394.865 83.8027 395.195 84.8627C395.535 85.9127 395.385 87.0327 394.865 87.3527C394.345 87.6727 393.625 90.5227 393.255 93.6927C392.895 96.8527 392.385 100.793 392.115 102.443C391.855 104.093 391.635 106.323 391.635 107.393C391.635 108.473 391.255 109.823 390.795 110.393C390.335 110.973 389.435 114.823 388.795 118.943C386.745 132.213 387.855 130.943 378.285 130.943C373.675 130.943 369.745 130.543 369.555 130.063C369.175 129.063 363.005 121.803 356.285 114.443C353.775 111.693 348.905 105.983 345.475 101.763C342.035 97.5327 338.715 94.0427 338.085 94.0127C336.825 93.9327 334.455 105.053 334.455 111.063C334.455 113.203 334.035 114.943 333.525 114.943C333.005 114.943 332.875 115.843 333.225 116.933C333.565 118.033 333.485 119.493 333.035 120.183C332.595 120.873 331.775 123.463 331.225 125.943L330.215 130.443L321.555 130.733C316.415 130.903 312.635 130.603 312.255 129.993ZM391.215 129.923C390.675 129.063 395.865 120.903 399.205 117.363C399.765 116.763 403.825 111.043 408.225 104.643C412.625 98.2427 417.465 91.3027 418.985 89.2227C420.505 87.1427 423.845 82.3727 426.415 78.6227C432.885 69.1727 433.325 68.9427 445.345 68.9427C455.725 68.9427 456.105 69.0727 457.265 73.1927C457.375 73.6027 457.585 74.1727 457.725 74.4427C458.085 75.1627 458.285 75.9827 459.195 80.4427C459.635 82.6427 460.465 85.5627 461.035 86.9427C461.595 88.3227 462.155 89.7827 462.265 90.1927C462.385 90.6027 462.565 91.0527 462.675 91.1927C462.785 91.3327 463.035 92.3427 463.225 93.4427C464.315 99.7227 466.165 105.943 466.925 105.943C467.415 105.943 467.685 106.503 467.535 107.193C467.085 109.263 469.975 119.943 470.995 119.943C471.515 119.943 471.695 120.573 471.405 121.343C471.105 122.113 471.135 123.013 471.465 123.343C471.795 123.673 472.225 125.523 472.425 127.443L472.785 130.943H463.295H453.805L452.265 125.763C451.415 122.913 450.725 119.983 450.725 119.263C450.725 118.223 447.345 117.943 434.955 117.943H419.185L416.705 122.643C412.275 131.033 412.435 130.943 401.565 130.943C396.035 130.943 391.575 130.503 391.215 129.923ZM446.205 100.693C445.185 95.7927 442.575 87.9727 441.805 87.4927C441.435 87.2627 440.695 87.3827 440.175 87.7627C439.165 88.4827 432.895 97.8627 430.855 101.693L429.655 103.943H438.265H446.885L446.205 100.693ZM482.065 129.373C481.725 128.513 482.455 122.553 483.675 116.123C484.895 109.703 486.095 102.913 486.335 101.053C486.585 99.1827 487.205 95.8027 487.725 93.5527C488.245 91.2927 488.685 87.9827 488.705 86.1927L488.725 82.9427H479.285C474.095 82.9427 469.625 82.5927 469.355 82.1527C469.085 81.7227 469.405 78.6827 470.045 75.4027L471.225 69.4427L501.995 69.1827L532.775 68.9127L532.225 71.1827C531.915 72.4227 531.335 75.4627 530.925 77.9427L530.175 82.4427L519.965 82.7227C508.335 83.0527 507.595 83.5727 507.475 91.5527C507.435 93.9627 506.995 95.9427 506.495 95.9427C505.995 95.9427 505.865 96.8027 506.195 97.8627C506.535 98.9127 506.355 100.053 505.815 100.393C504.745 101.053 503.085 112.043 503.515 115.613C503.655 116.813 503.305 118.083 502.735 118.433C502.165 118.793 501.975 119.543 502.325 120.103C502.675 120.673 502.495 122.103 501.925 123.293C501.345 124.473 500.615 126.683 500.285 128.193C499.685 130.933 499.645 130.943 491.175 130.943C484.365 130.943 482.545 130.633 482.065 129.373ZM529.315 130.083C529.025 129.613 529.625 124.323 530.655 118.333C534.215 97.6027 536.775 83.8427 538.155 77.9027C538.925 74.6227 539.305 71.9427 539.015 71.9427C538.725 71.9427 539.045 71.2727 539.725 70.4427C540.665 69.3127 543.175 68.9427 549.845 68.9427C554.735 68.9427 558.715 69.0527 558.705 69.1927C558.695 69.3327 558.065 72.9527 557.315 77.2427C556.555 81.5327 556.165 85.9127 556.445 86.9927C556.735 88.0827 556.455 88.9427 555.825 88.9427C555.125 88.9427 554.915 89.8627 555.285 91.3327C555.615 92.6527 555.435 94.0027 554.875 94.3527C553.985 94.9027 552.515 102.923 552.295 108.443C552.245 109.543 551.855 111.003 551.405 111.693C550.965 112.383 550.895 113.413 551.255 113.983C551.605 114.563 551.455 115.573 550.905 116.233C550.355 116.903 549.605 119.693 549.235 122.443C548.015 131.443 548.635 130.943 538.715 130.943C533.835 130.943 529.605 130.553 529.315 130.083ZM581.415 130.193C581.185 129.783 578.865 121.793 576.255 112.443C573.645 103.093 570.605 92.2927 569.485 88.4427C566.445 77.9327 564.825 70.5927 565.365 69.7227C565.625 69.2927 570.035 68.9427 575.165 68.9427C585.065 68.9427 584.905 68.8627 586.255 74.4427C586.385 74.9927 586.605 75.6727 586.735 75.9427C586.875 76.2127 587.115 77.3427 587.285 78.4427C587.445 79.5427 587.785 81.3427 588.035 82.4427C588.285 83.5427 588.805 86.3527 589.195 88.6927C589.585 91.0327 590.355 92.9427 590.915 92.9427C591.485 92.9427 591.685 93.6027 591.375 94.4127C591.065 95.2227 591.255 96.1527 591.795 96.4827C592.335 96.8227 592.685 97.6227 592.565 98.2727C592.205 100.263 593.875 109.943 594.565 109.893C595.245 109.843 615.845 79.2327 618.945 73.6827C619.885 71.9827 621.235 70.2327 621.945 69.7927C623.445 68.8327 640.095 68.6427 641.015 69.5727C641.365 69.9127 640.315 72.1327 638.685 74.5027C637.055 76.8627 635.725 79.2427 635.725 79.7927C635.725 80.3327 635.375 80.9227 634.955 81.1127C633.485 81.7427 626.775 91.6527 627.385 92.2727C627.735 92.6127 627.275 93.1827 626.365 93.5227C625.465 93.8727 624.725 94.7827 624.725 95.5527C624.725 96.3127 624.275 96.9427 623.725 96.9427C623.175 96.9427 622.725 97.5727 622.725 98.3327C622.725 99.1027 622.025 100.003 621.165 100.333C620.305 100.663 619.875 101.383 620.225 101.933C620.565 102.493 620.365 102.943 619.785 102.943C619.205 102.943 618.725 103.373 618.725 103.893C618.725 104.413 617.605 106.053 616.225 107.533C614.845 109.023 613.725 110.643 613.725 111.133C613.725 111.623 612.825 112.993 611.725 114.173C610.625 115.353 609.725 116.913 609.725 117.633C609.725 118.353 609.325 118.943 608.835 118.943C608.345 118.943 606.205 121.643 604.085 124.933L600.225 130.923L591.035 130.933C585.975 130.943 581.655 130.603 581.415 130.193ZM636.235 129.963C635.565 128.873 635.805 127.173 639.205 108.943C640.485 102.063 642.545 90.8227 643.785 83.9427C645.025 77.0627 646.475 70.8827 647.005 70.1927C647.735 69.2427 654.915 68.9427 676.775 68.9427H705.585L705.935 71.1927C706.125 72.4327 705.955 74.1127 705.555 74.9427C705.165 75.7727 704.565 78.1327 704.235 80.1927L703.635 83.9427H683.735C662.565 83.9427 662.615 83.9327 662.065 89.0027C661.775 91.6127 661.885 91.6627 669.405 92.3027C673.595 92.6527 681.025 92.9427 685.925 92.9427H694.815L694.485 98.6927L694.155 104.443L676.195 104.943C659.055 105.423 658.225 105.533 658.225 107.443C658.225 108.543 657.865 110.003 657.415 110.693C655.585 113.523 658.185 113.943 677.665 113.943C697.335 113.943 697.495 113.963 698.075 116.173C698.395 117.403 698.225 118.843 697.695 119.373C697.165 119.903 696.725 121.043 696.715 121.893C696.715 122.743 696.245 125.133 695.675 127.193L694.635 130.943H665.735C647.885 130.943 636.615 130.563 636.235 129.963Z" fill="#F0F8FC"/>
</svg>
